<svg width="120" height="120" viewBox="0 0 120 120" fill="none" xmlns="http://www.w3.org/2000/svg">
<g opacity="0.9" clip-path="url(#clip0_6493_26027)">
<path fill-rule="evenodd" clip-rule="evenodd" d="M84.2606 68.399C105.312 71.5437 120.008 78.6465 120.008 86.9029C120.008 98.0732 93.1432 107.131 60.0078 107.131C26.8724 107.131 0.0078125 98.0732 0.0078125 86.9029C0.0078125 78.6465 14.6919 71.5437 35.7551 68.399C42.9888 69.8803 51.2455 70.718 60.0198 70.718C68.7942 70.718 76.6297 69.9167 83.731 68.5083L84.2726 68.399H84.2606ZM75.1854 35.143C94.2505 37.2799 107.996 43.3508 107.996 50.5022C107.996 59.4384 86.4993 66.687 59.9958 66.687C33.4923 66.687 11.9958 59.4384 11.9958 50.5022C11.9958 43.3508 25.741 37.2921 44.8062 35.143C49.4762 35.9079 54.6036 36.3329 59.9958 36.3329C65.388 36.3329 70.1543 35.9322 74.6919 35.2159L75.1854 35.1309V35.143Z" fill="#D9F1E9"/>
<path d="M60.0078 33.1309C79.8915 33.1309 96.0078 27.7615 96.0078 21.1309C96.0078 14.5002 79.8915 9.13086 60.0078 9.13086C40.1242 9.13086 24.0078 14.5002 24.0078 21.1309C24.0078 27.7615 40.1242 33.1309 60.0078 33.1309Z" fill="#D9F1E9"/>
</g>
<defs>
<clipPath id="clip0_6493_26027">
<rect width="120" height="120" fill="white"/>
</clipPath>
</defs>
</svg>
