<svg width="120" height="120" viewBox="0 0 120 120" fill="none" xmlns="http://www.w3.org/2000/svg">
<path opacity="0.9" d="M0 9.48C0 6.23287 0 4.60928 0.611836 3.36037C1.19764 2.16458 2.16458 1.19764 3.36037 0.611836C4.60928 0 6.23287 0 9.48 0H110.52C113.767 0 115.391 0 116.64 0.611836C117.835 1.19764 118.802 2.16458 119.388 3.36037C120 4.60928 120 6.23287 120 9.48V110.52C120 113.767 120 115.391 119.388 116.64C118.802 117.835 117.835 118.802 116.64 119.388C115.391 120 113.767 120 110.52 120H9.48C6.23287 120 4.60928 120 3.36037 119.388C2.16458 118.802 1.19764 117.835 0.611836 116.64C0 115.391 0 113.767 0 110.52V9.48Z" fill="#0000FF"/>
</svg>
