<svg width="120" height="142" viewBox="0 0 120 142" fill="none" xmlns="http://www.w3.org/2000/svg">
<g opacity="0.9" clip-path="url(#clip0_6493_25579)">
<mask id="mask0_6493_25579" style="mask-type:luminance" maskUnits="userSpaceOnUse" x="0" y="0" width="120" height="142">
<path d="M120 0H0V142H120V0Z" fill="white"/>
</mask>
<g mask="url(#mask0_6493_25579)">
<path fill-rule="evenodd" clip-rule="evenodd" d="M72.2952 50.5851C76.6666 48.4173 82.2238 45.2317 87.7952 40.8629C88.9666 43.2863 89.1 45.4021 88.4904 47.1061C88.0619 48.3084 87.2523 49.3545 86.1904 50.1875C85.0428 51.0869 83.6047 51.7448 82.019 52.0951C79.0047 52.7672 75.4905 52.3743 72.2952 50.5804V50.5851ZM73.0524 72.775L78.8381 76.0978C67.0285 82.6771 63.8143 94.8986 60 106.798C56.1857 94.8986 52.9762 82.6771 41.1619 76.0978L46.9476 72.775C47.5095 72.5667 47.9857 72.1833 48.3143 71.6863C48.6428 71.1893 48.8047 70.6024 48.7762 70.006C48.2476 58.859 51.2762 53.9316 55.3571 50.836C56.8238 49.7284 58.419 49.1699 60 49.1699C61.5809 49.1699 63.1762 49.7284 64.6428 50.836C68.7285 53.9316 71.7524 58.859 71.2238 70.006C71.1952 70.6024 71.3571 71.1893 71.6857 71.6863C72.0143 72.1833 72.4904 72.562 73.0524 72.775ZM60 0C66.6857 0.179867 73.3904 1.46733 79.2095 3.98073C83.2381 5.7226 86.9952 8.01827 90.4 10.7683C91.9381 12.0085 93.2047 13.2107 94.5952 14.5881C98.3571 14.7159 103.852 10.5648 106.405 6.67873C102.014 20.9876 81.9762 37.8856 68.1047 44.3513C68.1 44.3513 68.0952 44.3466 68.0905 44.3419C65.6 42.4533 62.8 41.5066 60 41.5066C57.2 41.5066 54.4 42.4533 51.9095 44.3419C51.9095 44.3419 51.9 44.3466 51.8952 44.3513C38.0238 37.8856 17.9857 20.9876 13.5952 6.67873C16.1476 10.5648 21.6428 14.7159 25.4047 14.5881C26.8 13.206 28.0666 12.0085 29.6 10.7683C33.0047 8.01827 36.7619 5.7226 40.7905 3.98073C46.6095 1.46733 53.3143 0.179867 60 0ZM47.7047 50.5851C43.3333 48.4173 37.7762 45.2317 32.2095 40.8629C31.0381 43.2863 30.9047 45.4021 31.5095 47.1061C31.9381 48.3084 32.7476 49.3545 33.8095 50.1875C34.9619 51.0869 36.3952 51.7448 37.9857 52.0951C41 52.7672 44.5143 52.3743 47.7095 50.5804L47.7047 50.5851Z" fill="#D9F1E9"/>
<path fill-rule="evenodd" clip-rule="evenodd" d="M93.8905 35.5101C96.9571 32.4382 99.6571 29.0349 101.829 25.9961L102.933 28.0598C106.486 35.122 108.329 42.151 108.329 50.0651L108.319 62.6226L108.386 69.131C108.643 85.1154 112.124 101.285 120.005 116.081L103.514 102.865L91.8476 121.685L79.5905 110.216L60.0048 141.811L40.419 110.216L28.1619 121.685L16.4952 102.865L0 116.086C7.88095 101.289 11.3619 85.1154 11.619 69.1357L11.6857 62.6274L11.6762 50.0698C11.6762 42.1557 13.519 35.122 17.0714 28.0646L18.1714 26.0008C20.3429 29.0396 23.0429 32.4382 26.1095 35.5148L25.1524 37.4934C23.2905 41.3321 22.6762 45.6252 24.1238 49.7054C25.0571 52.3324 26.7619 54.5902 28.9571 56.3084C31.0905 57.9792 33.6143 59.1058 36.2571 59.6974C37.981 60.0808 39.7333 60.2418 41.4762 60.185C41.0714 62.4759 40.8905 64.852 40.881 67.2755L25.3286 76.2073L37.3333 82.8955C38.2905 83.4304 39.2048 84.041 40.0619 84.7273C49.9571 93.5597 55.9095 119.688 59.9952 132.449C64.0857 119.688 70.0333 93.5597 79.9286 84.7273C80.7857 84.041 81.7 83.4304 82.6571 82.8955L94.6619 76.2073L79.1095 67.2755C79.1 64.852 78.9191 62.4759 78.5143 60.185C80.2571 60.237 82.0095 60.0808 83.7333 59.6974C86.3762 59.1058 88.9 57.9792 91.0333 56.3084C93.2286 54.5854 94.9333 52.3324 95.8667 49.7054C97.3143 45.6252 96.7 41.3321 94.8429 37.4934L93.8857 35.5148L93.8905 35.5101Z" fill="#D9F1E9"/>
</g>
</g>
<defs>
<clipPath id="clip0_6493_25579">
<rect width="120" height="142" fill="white"/>
</clipPath>
</defs>
</svg>
