<svg width="120" height="119" viewBox="0 0 120 119" fill="none" xmlns="http://www.w3.org/2000/svg">
<path d="M94.958 11.167C85.3458 4.33808 73.8522 0.479767 62.0166 0.0358901C50.1468 -0.373843 38.448 2.7333 28.3569 8.91343C18.2658 15.0936 10.2613 24.1077 5.36974 34.7949C0.478132 45.5162 -1.1296 57.3985 0.785994 68.9734C2.70159 80.5484 8.03789 91.3039 16.145 99.8741C24.252 108.444 34.7194 114.454 46.2814 117.117C57.8433 119.78 69.9184 119.029 81.0357 114.898C92.153 110.766 101.765 103.493 108.675 93.9671C113.259 87.6504 116.577 80.4801 118.356 72.9C120.169 65.32 120.408 57.4668 119.142 49.7501C117.877 42.0676 115.072 34.6925 110.933 28.0684C106.794 21.4444 101.355 15.7082 94.958 11.167Z" fill="#F1603F"/>
<path d="M10.4326 92.8384C10.4326 92.8384 50.0786 80.0001 119.895 57.4648C119.895 57.4648 123.726 94.3749 85.0724 113.632C85.0724 113.632 66.0191 122.681 45.0843 116.876C45.0843 116.876 24.2522 112.984 10.4326 92.8726V92.8384Z" fill="#2B286C"/>
</svg>
