<svg width="120" height="120" viewBox="0 0 120 120" fill="none" xmlns="http://www.w3.org/2000/svg">
<g opacity="0.9" clip-path="url(#clip0_6493_25697)">
<path d="M90 0H30C13.4315 0 0 13.4315 0 30V90C0 106.569 13.4315 120 30 120H90C106.569 120 120 106.569 120 90V30C120 13.4315 106.569 0 90 0Z" fill="#855DCD"/>
<path d="M30.9336 18.668H89.0664V101.335H80.5332V63.4688H80.4492C79.506 53.0036 70.71 44.8016 60 44.8016C49.29 44.8016 40.494 53.0024 39.5508 63.4688H39.4668V101.335H30.9336V18.668Z" fill="#D9F1E9"/>
<path d="M15.4668 30.4004L18.9336 42.134H21.8664V89.6012C20.394 89.6012 19.2 90.7952 19.2 92.2676V95.468H18.6672C17.1948 95.468 16.0008 96.662 16.0008 98.1344V101.335H45.8676V98.1344C45.8676 96.662 44.6736 95.468 43.2012 95.468H42.6684V92.2676C42.6684 90.7952 41.4744 89.6012 40.002 89.6012H36.8016V30.4004H15.468H15.4668Z" fill="#D9F1E9"/>
<path d="M81.066 89.6012C79.5936 89.6012 78.3996 90.7952 78.3996 92.2676V95.468H77.8668C76.3944 95.468 75.2004 96.662 75.2004 98.1344V101.335H105.067V98.1344C105.067 96.662 103.873 95.468 102.401 95.468H101.868V92.2676C101.868 90.7952 100.674 89.6012 99.2016 89.6012V42.134H102.134L105.601 30.4004H84.2676V89.6H81.0672L81.066 89.6012Z" fill="#D9F1E9"/>
</g>
<defs>
<clipPath id="clip0_6493_25697">
<rect width="120" height="120" fill="white"/>
</clipPath>
</defs>
</svg>
