<svg width="120" height="111" viewBox="0 0 120 111" fill="none" xmlns="http://www.w3.org/2000/svg">
<g opacity="0.9" clip-path="url(#clip0_6493_25638)">
<mask id="mask0_6493_25638" style="mask-type:luminance" maskUnits="userSpaceOnUse" x="0" y="0" width="120" height="111">
<path d="M120 0H0V111H120V0Z" fill="white"/>
</mask>
<g mask="url(#mask0_6493_25638)">
<path d="M119.85 111.001H101.25V66.7337C101.25 64.3149 100.817 62.1612 99.9666 60.2725C99.15 58.3341 98.0333 56.6774 96.6 55.3023C95.1666 53.9273 93.4833 52.8835 91.5166 52.1712C89.6166 51.4091 87.5333 51.028 85.3 51.028H52.7666V111.001H34.1666V41.7173C34.1666 40.4416 34.4 39.2488 34.8833 38.1553C35.3666 37.0122 36.0333 36.0513 36.8833 35.2395C37.7333 34.3946 38.75 33.7153 39.8833 33.2515C41.0333 32.771 42.25 32.5391 43.5333 32.5391H85.4333C87.7666 32.5391 90.2166 32.8041 92.8 33.3177C95.4166 33.8313 98 34.6928 100.517 35.8691C103.083 37.0122 105.517 38.4701 107.817 40.2759C110.15 42.032 112.2 44.1858 113.967 46.7371C115.783 49.2553 117.217 52.1712 118.25 55.4846C119.3 58.798 119.817 62.5422 119.817 66.7171V110.985L119.85 111.001Z" fill="url(#paint0_linear_6493_25638)"/>
<path d="M92.5667 18.4899H26.25C23.7167 18.4899 21.8167 19.136 20.5333 20.4117C19.25 21.6377 18.6 23.4766 18.6 25.8789V110.189H0V25.8789C0 22.698 0.4 19.865 1.21667 17.3468C2.03333 14.8286 3.1 12.6251 4.43333 10.7365C5.81667 8.79811 7.38333 7.15796 9.15 5.83258C10.9167 4.45751 12.75 3.34751 14.65 2.48602C16.6 1.64109 18.5667 1.01154 20.5167 0.630494C22.4667 0.199748 24.3333 -0.015625 26.1 -0.015625H92.5667V18.4733V18.4899Z" fill="url(#paint1_linear_6493_25638)"/>
</g>
</g>
<defs>
<linearGradient id="paint0_linear_6493_25638" x1="1.01662" y1="9.26219" x2="156.807" y2="158.553" gradientUnits="userSpaceOnUse">
<stop offset="0.23" stop-color="#EAFDEC"/>
<stop offset="0.48" stop-color="#8565CC"/>
</linearGradient>
<linearGradient id="paint1_linear_6493_25638" x1="-49.2333" y1="-14.4953" x2="159.936" y2="139.73" gradientUnits="userSpaceOnUse">
<stop offset="0.23" stop-color="#EAFDEC"/>
<stop offset="0.48" stop-color="#8565CC"/>
</linearGradient>
<clipPath id="clip0_6493_25638">
<rect width="120" height="111" fill="white"/>
</clipPath>
</defs>
</svg>
