<svg width="120" height="121" viewBox="0 0 120 121" fill="none" xmlns="http://www.w3.org/2000/svg">
<g opacity="0.9" clip-path="url(#clip0_6493_25515)">
<mask id="mask0_6493_25515" style="mask-type:luminance" maskUnits="userSpaceOnUse" x="0" y="0" width="120" height="121">
<path d="M120 0H0V121H120V0Z" fill="white"/>
</mask>
<g mask="url(#mask0_6493_25515)">
<path d="M83.9424 14.6352C79.1539 6.08449 70.1193 0.725923 60.3001 0.56459C50.1808 0.391732 40.7308 5.77335 35.7578 14.566L31.8462 21.4918C29.3539 25.8939 25.7078 29.5239 21.2885 31.99L14.3193 35.8851C5.70006 40.702 0.323136 49.7482 0.207751 59.6126V60.5575C0.0808281 70.6293 5.49237 79.9636 14.2962 84.8958L20.9654 88.6295C25.3962 91.1072 29.0539 94.7602 31.5462 99.1969L35.2847 105.858C40.2231 114.65 49.5578 120.043 59.6539 119.94H60.7039C70.5231 119.813 79.5462 114.5 84.3924 105.961L88.6847 98.3902C91.177 93.9881 94.8347 90.3581 99.2654 87.9035L105.577 84.3888C114.462 79.4451 119.908 70.0186 119.735 59.8661C119.573 50.0709 114.208 41.0938 105.646 36.2999L98.5154 32.3127C94.0847 29.8351 90.427 26.182 87.9347 21.7454L83.9424 14.6236V14.6352Z" fill="#7556F6"/>
<path d="M83.5731 40.7363C80.0539 39.7107 76.3962 38.2587 72.7039 36.7836C72.4962 35.8502 71.6654 34.6863 70.0039 33.2689C67.5924 31.16 63.0462 31.2176 59.1231 32.1511C54.7962 31.1254 50.5154 30.7567 46.4077 31.7477C12.8424 41.0474 31.3616 64.7404 19.027 87.5575C36.127 96.984 34.1654 106.203 66.1385 107.09C66.1385 107.09 58.2001 83.6625 79.3039 72.8071C96.427 64.0029 108.796 47.6621 83.5616 40.7248L83.5731 40.7363Z" fill="#B7A2FF"/>
<path d="M95.3309 59.7619C87.727 65.155 79.0732 69.2459 66.8078 69.2459C61.0617 69.2459 59.8963 63.1038 56.1001 66.1115C54.1386 67.6672 47.227 71.1359 41.7463 70.8823C36.2193 70.6173 27.3809 67.3791 24.9001 55.6133C25.0386 67.4598 24.6809 77.7159 19.0386 87.5688C25.6501 88.4561 34.5347 105.765 38.0309 109.833C47.8963 121.299 56.7463 120.573 66.5193 119.294C64.4886 105.004 77.954 77.981 84.9463 70.8247C87.6001 68.1166 92.6655 63.68 95.3309 59.7619Z" fill="#B7A2FF"/>
<path d="M58.2346 32.1277C61.2346 33.3262 72.2192 36.9792 76.9615 38.4082C72.1154 30.3761 64.7654 30.837 58.2346 32.1277Z" fill="#AC94FF"/>
<path d="M61.4539 46.1763C61.4539 51.3966 57.2539 55.6143 52.0731 55.6143C46.8923 55.6143 42.6808 51.385 42.6808 46.1763C42.6808 40.9675 46.8808 36.7383 52.0731 36.7383C57.2654 36.7383 61.4539 40.9675 61.4539 46.1763Z" fill="white"/>
<path d="M56.0308 53.804C59.077 53.804 61.5347 50.3584 61.5347 46.1061C61.5347 41.8538 59.0654 38.4082 56.0308 38.4082C52.9962 38.4082 50.527 41.8538 50.527 46.1061C50.527 50.3584 52.9962 53.804 56.0308 53.804Z" fill="black"/>
<path d="M56.0308 46.1072L49.4193 41.7051V50.5093L56.0308 46.1072Z" fill="white"/>
</g>
</g>
<defs>
<clipPath id="clip0_6493_25515">
<rect width="120" height="121" fill="white"/>
</clipPath>
</defs>
</svg>
