<svg width="312" height="69" viewBox="0 0 312 69" fill="none" xmlns="http://www.w3.org/2000/svg">
<g opacity="0.9" clip-path="url(#clip0_6493_25346)">
<mask id="mask0_6493_25346" style="mask-type:luminance" maskUnits="userSpaceOnUse" x="0" y="0" width="312" height="69">
<path d="M312 0H0V69H312V0Z" fill="white"/>
</mask>
<g mask="url(#mask0_6493_25346)">
<path d="M285.759 52.1727L274.494 26.1947H282.047L289.73 44.8L298.621 26.1947H306.044L288.521 61.9741H281.011L285.759 52.1727ZM258.396 46.795C259.043 46.6215 259.691 46.4047 260.295 46.0577C260.856 45.7541 261.417 45.3638 261.892 44.9301C262.367 44.4964 262.798 43.976 263.143 43.4122C263.489 42.805 263.791 42.1545 263.964 41.504C264.179 40.7667 264.266 40.0294 264.266 39.2488C264.266 38.4681 264.179 37.7309 263.964 36.9936C263.791 36.3431 263.489 35.6925 263.143 35.0854C262.798 34.5216 262.367 34.0011 261.892 33.5674C261.417 33.1338 260.856 32.7434 260.295 32.4399C259.691 32.1363 259.043 31.9194 258.396 31.7459C257.705 31.5725 256.972 31.4857 256.281 31.5291C255.591 31.5291 254.857 31.6158 254.166 31.7459C253.519 31.8761 252.872 32.1363 252.267 32.4399C251.663 32.7434 251.145 33.1338 250.67 33.5674C250.196 34.0011 249.764 34.5216 249.419 35.0854C249.073 35.6925 248.771 36.3431 248.599 36.9936C248.383 37.7309 248.297 38.5115 248.297 39.2488C248.297 39.986 248.383 40.7667 248.599 41.504C248.771 42.1545 249.073 42.805 249.419 43.4122C249.764 43.976 250.196 44.4964 250.67 44.9301C251.145 45.3638 251.706 45.7541 252.267 46.0577C252.872 46.3613 253.476 46.6215 254.166 46.795C254.857 46.9685 255.547 47.0552 256.281 47.0118C256.972 47.0552 257.662 46.9685 258.396 46.795ZM250.757 52.6064C249.591 52.3028 248.469 51.8691 247.433 51.262C245.405 50.1344 243.722 48.443 242.6 46.4047C241.995 45.3638 241.564 44.2362 241.262 43.0652C240.657 40.5498 240.657 37.9477 241.262 35.4323C241.564 34.2613 241.995 33.1338 242.6 32.0929C243.722 30.0546 245.405 28.4065 247.433 27.2356C248.469 26.6718 249.591 26.1947 250.757 25.8911C252.008 25.5876 253.26 25.4141 254.555 25.4141C255.245 25.4141 255.936 25.4574 256.626 25.5442C257.274 25.6309 257.878 25.761 258.482 25.9345C259.043 26.108 259.604 26.2815 260.122 26.5417C260.64 26.7585 261.115 27.0187 261.59 27.3223C262.021 27.5825 262.453 27.9295 262.798 28.2764C263.143 28.6234 263.489 28.9703 263.748 29.3607V26.2381H270.912V52.3462H263.748V49.2236C262.798 50.438 261.547 51.3921 260.122 52.0426C259.302 52.4329 258.439 52.6932 257.533 52.8233C256.54 52.9967 255.504 53.1268 254.512 53.0835C253.26 53.0835 252.008 52.9534 250.757 52.6064ZM224.775 32.8302C225.811 32.8302 226.846 32.7434 227.839 32.4832C228.616 32.2664 229.35 31.9194 229.954 31.399C230.515 30.9219 230.947 30.3148 231.205 29.6209C231.464 28.8402 231.637 28.0162 231.594 27.1922C231.594 26.3682 231.464 25.5442 231.205 24.7635C230.947 24.0696 230.515 23.5058 229.954 23.0288C229.35 22.5517 228.616 22.1614 227.839 21.9879C226.846 21.7277 225.811 21.5976 224.775 21.641H217.74V32.8302H224.775ZM210.316 15.4826H225.508C227.623 15.4392 229.695 15.7428 231.68 16.35C233.277 16.827 234.745 17.6944 235.996 18.7786C237.118 19.8195 237.981 21.0772 238.543 22.5084C239.104 24.0263 239.406 25.6309 239.363 27.2356C239.363 28.8402 239.104 30.4449 238.543 31.9194C237.981 33.3506 237.118 34.6083 235.996 35.6492C234.745 36.7767 233.277 37.6008 231.68 38.0778C229.695 38.685 227.58 38.9886 225.508 38.9452H217.783V52.3462H210.359L210.316 15.4826ZM178.508 26.1947H185.629V29.3173C186.061 28.7101 186.579 28.1463 187.183 27.7126C187.787 27.2356 188.478 26.8019 189.211 26.4983C189.988 26.1514 190.851 25.8911 191.715 25.7177C192.664 25.5442 193.614 25.4574 194.606 25.4574C196.117 25.4141 197.627 25.6743 199.008 26.1947C200.26 26.6718 201.425 27.4091 202.375 28.3632C203.324 29.3607 204.015 30.575 204.447 31.8761C204.964 33.394 205.18 34.9552 205.18 36.5599V52.3462H198.059V38.4248C198.059 37.4273 197.929 36.3864 197.627 35.4323C197.368 34.6517 196.98 33.9144 196.419 33.2639C195.901 32.7001 195.21 32.223 194.477 31.9628C192.794 31.399 190.938 31.399 189.211 31.9628C188.478 32.223 187.787 32.7001 187.269 33.2639C186.708 33.9144 186.32 34.6517 186.061 35.4323C185.759 36.3864 185.629 37.4273 185.629 38.4248V52.3462H178.551L178.508 26.1947ZM160.985 46.7082C161.676 46.5348 162.323 46.3179 162.927 45.971C163.531 45.6674 164.049 45.2771 164.524 44.8C164.999 44.3229 165.387 43.8025 165.732 43.2387C166.078 42.6316 166.337 42.0244 166.466 41.3739C166.811 39.9427 166.811 38.4681 166.466 37.037C166.164 35.7359 165.474 34.5216 164.524 33.6108C164.049 33.1338 163.488 32.7434 162.927 32.4399C162.323 32.0929 161.632 31.8761 160.985 31.7026C160.251 31.5291 159.474 31.4424 158.741 31.4424C158.007 31.4424 157.23 31.5291 156.496 31.7026C155.806 31.8761 155.158 32.0929 154.554 32.4399C153.95 32.7434 153.432 33.1338 152.957 33.6108C152.483 34.0879 152.094 34.6083 151.749 35.1721C150.713 37.0803 150.454 39.2921 151.015 41.4172C151.188 42.0678 151.447 42.7183 151.749 43.2821C152.051 43.8459 152.483 44.3663 152.957 44.8434C153.432 45.3204 153.95 45.7107 154.554 46.0143C155.158 46.3179 155.806 46.5781 156.496 46.7516C157.23 46.9251 157.964 47.0118 158.741 47.0118C159.518 47.0118 160.251 46.9251 160.985 46.7082ZM154.554 52.6064C153.259 52.3028 152.008 51.8691 150.842 51.262C149.72 50.6982 148.728 50.0043 147.778 49.1803C146.872 48.3563 146.095 47.4455 145.491 46.4047C144.843 45.3638 144.369 44.2362 144.023 43.0652C143.333 40.5498 143.333 37.9043 144.023 35.4323C144.369 34.2613 144.843 33.1338 145.491 32.0929C146.785 30.0112 148.641 28.3198 150.842 27.2356C152.008 26.6284 153.259 26.1947 154.554 25.8911C157.316 25.2406 160.208 25.2406 162.97 25.8911C164.265 26.1947 165.474 26.6284 166.639 27.2356C167.761 27.7994 168.754 28.4933 169.703 29.3607C170.61 30.1847 171.386 31.0954 172.034 32.1363C172.681 33.1771 173.199 34.3047 173.501 35.4757C174.192 37.9911 174.192 40.6366 173.501 43.1086C172.854 45.4939 171.516 47.619 169.703 49.2236C168.797 50.0476 167.761 50.7416 166.639 51.3053C165.474 51.9125 164.222 52.3462 162.97 52.6498C160.208 53.2569 157.316 53.2569 154.554 52.6064ZM126.846 46.7082C127.536 46.5348 128.184 46.3179 128.788 45.971C129.392 45.6674 129.91 45.2771 130.385 44.8C130.86 44.3229 131.248 43.8025 131.593 43.2387C131.939 42.6316 132.198 42.0244 132.327 41.3739C132.672 39.9427 132.672 38.4681 132.327 37.037C132.025 35.7359 131.334 34.5216 130.385 33.6108C129.91 33.1338 129.349 32.7434 128.788 32.4399C128.184 32.0929 127.493 31.8761 126.846 31.7026C126.112 31.5291 125.335 31.4424 124.602 31.4424C123.868 31.4424 123.091 31.5291 122.357 31.7026C121.667 31.8761 121.019 32.0929 120.415 32.4399C119.854 32.7434 119.293 33.1338 118.818 33.6108C118.343 34.0445 117.955 34.6083 117.61 35.1721C117.308 35.7793 117.049 36.3864 116.876 37.037C116.703 37.7309 116.574 38.4681 116.617 39.2054C116.617 39.9427 116.703 40.68 116.876 41.3739C117.049 42.0244 117.308 42.6749 117.61 43.2387C117.912 43.8025 118.343 44.3229 118.818 44.8C119.293 45.2771 119.811 45.6674 120.415 45.971C121.019 46.2745 121.667 46.5348 122.357 46.7082C123.091 46.8817 123.825 46.9685 124.602 46.9685C125.335 46.9685 126.112 46.8817 126.846 46.7082ZM120.372 52.6064C119.077 52.3028 117.825 51.8691 116.66 51.262C115.538 50.6982 114.545 50.0043 113.596 49.1803C112.689 48.3563 111.913 47.4455 111.308 46.4047C110.661 45.3638 110.186 44.2362 109.841 43.0652C109.15 40.5498 109.15 37.9043 109.841 35.4323C110.186 34.2613 110.661 33.1338 111.308 32.0929C111.956 31.052 112.733 30.1413 113.596 29.3173C114.502 28.4933 115.538 27.756 116.66 27.1922C117.825 26.585 119.077 26.1514 120.372 25.8478C123.134 25.2406 126.026 25.2406 128.788 25.8478C130.083 26.1514 131.291 26.585 132.457 27.1922C133.579 27.756 134.571 28.4499 135.521 29.3173C136.427 30.1413 137.204 31.052 137.851 32.0929C138.499 33.1338 139.017 34.2613 139.319 35.4323C140.009 37.9477 140.009 40.5932 139.319 43.0652C138.671 45.4505 137.334 47.5756 135.521 49.1803C134.615 50.0043 133.579 50.6982 132.457 51.262C131.291 51.8691 130.04 52.3028 128.788 52.6064C126.069 53.2569 123.177 53.2569 120.372 52.6064ZM64.2645 15.4826H71.7743L84.5495 35.1287L97.411 15.4826H104.878V52.3462H97.4542V27.0621L86.8369 43.3688H82.3052L71.688 27.0621V52.3462H64.2645V15.4826Z" fill="#D9F1E9"/>
<path d="M47.1734 22.074C51.3167 22.074 54.64 18.6912 54.64 14.5712C54.64 10.4511 51.2735 7.06836 47.1734 7.06836C43.0732 7.06836 39.7068 10.4511 39.7068 14.5712C39.7068 18.6912 43.0301 22.074 47.1734 22.074ZM24.2125 55.9452C14.1132 55.9452 5.95605 47.7484 5.95605 37.6001C5.95605 27.4518 14.1132 19.255 24.2125 19.255C34.3118 19.255 42.469 27.4518 42.469 37.6001C42.469 47.7484 34.3118 55.9452 24.2125 55.9452Z" fill="#7D00FF"/>
</g>
</g>
<defs>
<clipPath id="clip0_6493_25346">
<rect width="312" height="69" fill="white"/>
</clipPath>
</defs>
</svg>
