<svg width="120" height="95" viewBox="0 0 120 95" fill="none" xmlns="http://www.w3.org/2000/svg">
<g opacity="0.9" clip-path="url(#clip0_6493_25753)">
<path d="M0 15.6021C0 8.24718 0 4.56972 2.29252 2.28521C4.58432 0 8.27342 0 15.6523 0H104.348C111.727 0 115.416 0 117.707 2.28521C120 4.57042 120 8.24789 120 15.6028V79.3986C120 86.7535 120 90.431 117.707 92.7155C115.416 95.0007 111.727 95.0007 104.348 95.0007H15.6523C8.27342 95.0007 4.58432 95.0007 2.29252 92.7155C0 90.4303 0 86.7528 0 79.3979V15.6021Z" fill="#B5E938"/>
<path fill-rule="evenodd" clip-rule="evenodd" d="M2.60864 14.7348C2.60864 9.0144 2.60864 6.15383 4.39132 4.37707C6.17399 2.59961 9.04353 2.59961 14.7826 2.59961H105.217C110.957 2.59961 113.825 2.59961 115.609 4.37707C117.391 6.15454 117.391 9.0144 117.391 14.7348V74.1968C117.391 79.9172 117.391 82.7778 115.609 84.5545C113.825 86.332 110.957 86.332 105.217 86.332H14.7826C9.04353 86.332 6.17399 86.332 4.39132 84.5545C2.60864 82.7778 2.60864 79.9172 2.60864 74.1968V14.7348ZM108.687 44.6299V10.9214H99.9062V33.3278L78.1549 10.9214H70.3722V33.5264L48.6209 11.12H40.8382V33.5264L19.0869 11.1193H11.3042V44.6299H20.0847V23.0165L40.8382 44.6299H49.6187V23.0165L70.3722 44.6299H79.1527V22.8179L99.9062 44.6299H108.687ZM74.1794 77.6637C73.4249 77.6637 72.7673 77.4954 72.2065 77.1588C71.6578 76.8116 71.2293 76.3235 70.9202 75.6954C70.6119 75.0672 70.4571 74.3271 70.4571 73.4743V62.4369C70.4571 61.5954 70.6112 60.8609 70.9202 60.2327C71.2293 59.6045 71.6634 59.1165 72.2242 58.7693C72.7842 58.4214 73.4362 58.2475 74.1794 58.2475C74.9226 58.2475 75.5116 58.4102 76.0491 58.7355C76.5978 59.0609 77.0263 59.5264 77.3353 60.132C77.6557 60.7376 77.8211 61.4552 77.8332 62.2855V64.9102H76.8722L76.8552 62.2348C76.8552 61.6179 76.7463 61.0792 76.5292 60.6193C76.3121 60.1482 76.0031 59.789 75.6029 59.5426C75.2026 59.2848 74.7281 59.1559 74.1794 59.1559C73.6307 59.1559 73.1159 59.2961 72.7043 59.5764C72.2928 59.8454 71.9781 60.2271 71.761 60.7207C71.5432 61.2031 71.435 61.7581 71.435 62.3862V73.5243C71.435 74.175 71.5432 74.7468 71.761 75.2404C71.9781 75.7228 72.2928 76.0982 72.7043 76.3679C73.1159 76.6257 73.613 76.7545 74.1964 76.7545C74.7338 76.7545 75.197 76.6369 75.5859 76.401C75.9861 76.1545 76.2951 75.801 76.5122 75.3411C76.7293 74.8813 76.8439 74.3264 76.8552 73.6757L76.8722 71.0003H77.8332V73.625C77.8211 74.4665 77.6613 75.1897 77.3523 75.7954C77.044 76.3897 76.6148 76.8496 76.066 77.175C75.5173 77.5003 74.888 77.663 74.1794 77.663V77.6637ZM14.5634 59.3412V77.4785H15.5583V59.3412H18.8005V58.4327H11.3049V59.3412H14.5641H14.5634ZM41.2752 58.4327V77.4785H47.4329V76.5869H42.2355V68.1574H47.1586V67.2827H42.2355V59.3412H47.4329V58.4327H41.2752ZM100.874 58.4327V77.4785H101.835V68.1581H107.718V77.4785H108.696V58.4327H107.718V67.2658H101.835V58.4327H100.874Z" fill="#1E1E1E"/>
</g>
<defs>
<clipPath id="clip0_6493_25753">
<rect width="120" height="95" fill="white"/>
</clipPath>
</defs>
</svg>
