<svg width="312" height="48" viewBox="0 0 312 48" fill="none" xmlns="http://www.w3.org/2000/svg">
<g opacity="0.9" clip-path="url(#clip0_6493_26142)">
<path d="M59.5764 37.0014C58.8489 37.0014 58.3338 36.8516 58.0335 36.5543C57.7577 36.257 57.6185 35.7857 57.6185 35.138V13.5754C57.6185 12.9301 57.7699 12.4588 58.0702 12.1591C58.3704 11.8353 58.8733 11.6758 59.574 11.6758H68.7897C72.3003 11.6758 74.8831 12.4081 76.5383 13.8726C78.1934 15.3372 79.021 17.522 79.021 20.427C79.021 23.332 78.1934 25.4805 76.5383 26.9451C74.9075 28.3855 72.3247 29.1057 68.7897 29.1057H65.2157V35.138C65.2157 35.7833 65.0644 36.2546 64.7641 36.5543C64.4638 36.8516 63.9487 37.0014 63.2212 37.0014H59.5715H59.5764ZM68.1916 23.7042C69.2194 23.7042 70.0104 23.4311 70.5621 22.8849C71.1382 22.3387 71.4263 21.5194 71.4263 20.427C71.4263 19.3346 71.1382 18.4791 70.5621 17.9329C70.0104 17.3867 69.2194 17.1136 68.1916 17.1136H65.2206V23.7042H68.1916Z" fill="#D9F1E9"/>
<path d="M87.9097 37.5595C85.5514 37.5595 83.6594 36.8152 82.2289 35.3264C80.8251 33.8111 80.1221 31.6891 80.1221 28.9582C80.1221 26.8725 80.5981 25.0478 81.5502 23.4841C82.5291 21.9205 83.8963 20.7169 85.6515 19.871C87.4312 19.001 89.477 18.5684 91.784 18.5684C93.6906 18.5684 95.3702 18.7786 96.8251 19.2016C98.3046 19.5979 99.6595 20.1828 100.887 20.9513V35.8485C100.887 36.3197 100.8 36.6315 100.624 36.7789C100.448 36.9288 100.096 37.0013 99.5716 37.0013H95.7339C95.458 37.0013 95.2457 36.965 95.0943 36.8901C94.9429 36.791 94.8184 36.6412 94.7183 36.443L94.2301 35.3264C93.5026 36.095 92.6262 36.6557 91.596 37.0013C90.5926 37.3735 89.3647 37.5595 87.9097 37.5595ZM90.7318 32.4939C91.7107 32.4939 92.4748 32.2571 93.0266 31.7858C93.5783 31.3145 93.8541 30.6427 93.8541 29.775V23.9651C93.3781 23.7427 92.7751 23.6291 92.0476 23.6291C90.7171 23.6291 89.6527 24.0883 88.8496 25.0067C88.0732 25.9251 87.6826 27.2157 87.6826 28.8808C87.6826 31.2904 88.6982 32.4939 90.7293 32.4939H90.7318Z" fill="#D9F1E9"/>
<path d="M106.124 37.0017C105.396 37.0017 104.881 36.8519 104.581 36.5546C104.281 36.2574 104.129 35.7861 104.129 35.1384V20.2799C104.129 19.8328 104.205 19.5355 104.354 19.3857C104.53 19.2117 104.881 19.1247 105.409 19.1247H109.283C109.583 19.1247 109.81 19.1754 109.959 19.2745C110.135 19.3494 110.235 19.4969 110.259 19.7216L110.447 20.8382C111.15 20.1422 112.066 19.596 113.194 19.1996C114.348 18.7767 115.625 18.5664 117.031 18.5664C119.063 18.5664 120.706 19.1368 121.96 20.2799C123.215 21.3965 123.84 23.0616 123.84 25.2706V35.1408C123.84 35.7861 123.689 36.2574 123.388 36.557C123.113 36.8543 122.612 37.0041 121.885 37.0041H118.235C117.507 37.0041 116.98 36.8543 116.655 36.557C116.355 36.2598 116.204 35.7885 116.204 35.1408V25.7564C116.204 25.012 116.04 24.4779 115.716 24.154C115.388 23.8302 114.876 23.6707 114.173 23.6707C113.421 23.6707 112.818 23.8689 112.366 24.2676C111.939 24.664 111.727 25.2102 111.727 25.9062V35.1432C111.727 35.7885 111.575 36.2598 111.275 36.5595C110.999 36.8567 110.499 37.0066 109.771 37.0066H106.121L106.124 37.0017Z" fill="#D9F1E9"/>
<path d="M137.14 37.56C133.63 37.56 130.92 36.7528 129.016 35.1384C127.109 33.524 126.157 31.1773 126.157 28.1007C126.157 26.2132 126.596 24.5504 127.473 23.11C128.352 21.6696 129.616 20.553 131.271 19.7579C132.951 18.9628 134.933 18.5664 137.216 18.5664C138.947 18.5664 140.402 18.7283 141.581 19.0498C142.784 19.3736 143.851 19.8691 144.779 20.5385C145.055 20.7125 145.194 20.9349 145.194 21.208C145.194 21.4061 145.094 21.6672 144.894 21.991L143.351 24.635C143.175 24.983 142.962 25.157 142.711 25.157C142.56 25.157 142.323 25.0579 141.996 24.8597C141.32 24.4368 140.68 24.1275 140.077 23.9293C139.501 23.7311 138.773 23.632 137.894 23.632C136.64 23.632 135.624 24.0284 134.848 24.8235C134.096 25.6186 133.72 26.711 133.72 28.1007C133.72 29.4903 134.108 30.6093 134.887 31.3778C135.663 32.1222 136.73 32.4944 138.085 32.4944C138.888 32.4944 139.616 32.3832 140.267 32.1585C140.919 31.9361 141.583 31.6244 142.262 31.228C142.613 31.0298 142.862 30.9307 143.014 30.9307C143.238 30.9307 143.441 31.1047 143.617 31.4528L145.309 34.3215C145.433 34.5704 145.496 34.7686 145.496 34.916C145.496 35.1408 145.345 35.3511 145.045 35.5492C143.99 36.2187 142.838 36.7165 141.583 37.038C140.355 37.386 138.873 37.56 137.145 37.56H137.14Z" fill="#D9F1E9"/>
<path d="M155.027 37.5595C152.669 37.5595 150.777 36.8152 149.346 35.3264C147.943 33.8111 147.24 31.6891 147.24 28.9582C147.24 26.8725 147.716 25.0478 148.67 23.4841C149.649 21.9205 151.016 20.7169 152.771 19.871C154.551 19.001 156.597 18.5684 158.904 18.5684C160.81 18.5684 162.49 18.7786 163.945 19.2016C165.424 19.5979 166.779 20.1828 168.007 20.9513V35.8485C168.007 36.3197 167.919 36.6315 167.744 36.7789C167.568 36.9288 167.216 37.0013 166.689 37.0013H162.851C162.575 37.0013 162.363 36.965 162.212 36.8901C162.06 36.791 161.936 36.6412 161.836 36.443L161.348 35.3264C160.62 36.095 159.741 36.6557 158.713 37.0013C157.71 37.3735 156.482 37.5595 155.027 37.5595ZM157.849 32.4939C158.828 32.4939 159.592 32.2571 160.144 31.7858C160.696 31.3145 160.972 30.6427 160.972 29.775V23.9651C160.496 23.7427 159.893 23.6291 159.165 23.6291C157.837 23.6291 156.77 24.0883 155.967 25.0067C155.191 25.9251 154.8 27.2157 154.8 28.8808C154.8 31.2904 155.816 32.4939 157.847 32.4939H157.849Z" fill="#D9F1E9"/>
<path d="M191.636 35.5852C191.812 35.7833 191.9 36.0081 191.9 36.2546C191.9 36.4769 191.824 36.663 191.675 36.8129C191.524 36.9361 191.324 36.999 191.072 36.999H185.243C184.891 36.999 184.627 36.9748 184.452 36.9241C184.3 36.8491 184.139 36.7138 183.963 36.5156L178.846 29.6253V35.138C178.846 35.7833 178.695 36.2546 178.395 36.5543C178.095 36.8516 177.579 37.0014 176.852 37.0014H173.202C172.475 37.0014 171.962 36.8516 171.659 36.5543C171.384 36.257 171.244 35.7857 171.244 35.138V13.5754C171.244 12.9301 171.396 12.4588 171.696 12.1591C171.996 11.8353 172.499 11.6758 173.2 11.6758H176.85C177.577 11.6758 178.092 11.8377 178.392 12.1591C178.693 12.4564 178.844 12.9277 178.844 13.5754V26.0509L183.81 19.6464C183.961 19.4482 184.122 19.3104 184.298 19.2355C184.474 19.1606 184.737 19.1243 185.089 19.1243H190.921C191.172 19.1243 191.36 19.1993 191.485 19.3467C191.636 19.47 191.709 19.644 191.709 19.8687C191.709 20.1177 191.622 20.34 191.446 20.5382L185.013 27.8369L191.634 35.5827L191.636 35.5852Z" fill="#D9F1E9"/>
<path d="M203.852 37.5591C201.746 37.5591 199.866 37.2111 198.211 36.5174C196.58 35.8214 195.288 34.7798 194.336 33.3901C193.384 32.0005 192.906 30.299 192.906 28.2883C192.906 25.1343 193.809 22.7272 195.616 21.0644C197.422 19.4017 200.017 18.5703 203.403 18.5703C206.789 18.5703 209.221 19.3896 210.927 21.0282C212.658 22.6426 213.522 24.8878 213.522 27.7686C213.522 29.0109 212.97 29.632 211.867 29.632H200.054C200.054 30.7002 200.454 31.5195 201.257 32.0899C202.085 32.6602 203.325 32.9454 204.98 32.9454C206.008 32.9454 206.862 32.8584 207.539 32.6844C208.242 32.4862 208.942 32.201 209.645 31.8289C209.946 31.7056 210.146 31.6428 210.246 31.6428C210.473 31.6428 210.661 31.7926 210.81 32.0899L212.089 34.4728C212.214 34.7218 212.277 34.9079 212.277 35.0311C212.277 35.2535 212.126 35.4661 211.826 35.6643C210.798 36.3338 209.631 36.8195 208.327 37.1168C207.024 37.4141 205.53 37.5639 203.85 37.5639L203.852 37.5591ZM206.748 25.9391C206.748 24.9966 206.472 24.2619 205.92 23.7423C205.368 23.2202 204.541 22.9592 203.437 22.9592C202.334 22.9592 201.494 23.2323 200.918 23.7785C200.342 24.3005 200.054 25.0207 200.054 25.9391H206.75H206.748Z" fill="#D9F1E9"/>
<path d="M226.414 37.5594C224.308 37.5594 222.313 37.3491 220.433 36.9262C218.551 36.479 217.035 35.8579 215.88 35.0628C215.453 34.7897 215.241 34.5045 215.241 34.2073C215.241 34.0091 215.316 33.7964 215.465 33.5741L217.308 30.6691C217.509 30.3718 217.709 30.222 217.911 30.222C218.036 30.222 218.251 30.309 218.551 30.483C219.479 31.005 220.531 31.4255 221.71 31.7494C222.889 32.0732 224.054 32.2327 225.208 32.2327C226.363 32.2327 227.252 32.0587 227.803 31.7107C228.38 31.3627 228.668 30.8044 228.668 30.0359C228.668 29.2673 228.355 28.7066 227.728 28.2861C227.125 27.8632 225.985 27.3291 224.305 26.6838C221.771 25.7412 219.791 24.6851 218.361 23.5178C216.957 22.3263 216.254 20.7119 216.254 18.6769C216.254 16.219 217.145 14.3436 218.925 13.053C220.704 11.7625 223.075 11.1172 226.034 11.1172C228.089 11.1172 229.847 11.3033 231.299 11.6755C232.779 12.0235 234.034 12.5697 235.061 13.3141C235.489 13.6379 235.701 13.9352 235.701 14.2083C235.701 14.3823 235.625 14.5805 235.474 14.8052L233.631 17.7102C233.406 18.0075 233.203 18.1573 233.028 18.1573C232.903 18.1573 232.688 18.0703 232.388 17.8963C230.933 16.9538 229.202 16.4801 227.196 16.4801C226.117 16.4801 225.289 16.6541 224.713 17.0021C224.137 17.3501 223.849 17.9205 223.849 18.7156C223.849 19.2618 224 19.7089 224.3 20.0569C224.6 20.4049 225.003 20.7143 225.504 20.9874C226.031 21.2363 226.834 21.5577 227.911 21.9565L228.626 22.2175C230.481 22.9377 231.936 23.6338 232.991 24.3032C234.07 24.9485 234.886 25.7557 235.437 26.7249C235.989 27.6674 236.265 28.8589 236.265 30.2993C236.265 32.5083 235.425 34.2725 233.745 35.5873C232.09 36.902 229.644 37.5618 226.409 37.5618L226.414 37.5594Z" fill="#D9F1E9"/>
<path d="M244.262 37.002C243.886 37.002 243.598 36.9392 243.398 36.816C243.198 36.6927 243.047 36.4438 242.947 36.0716L238.093 19.983C238.042 19.8331 238.018 19.7219 238.018 19.647C238.018 19.299 238.269 19.125 238.77 19.125H243.735C244.062 19.125 244.299 19.1878 244.45 19.3111C244.602 19.4102 244.702 19.5842 244.751 19.8331L246.782 28.2871L249.34 21.4717C249.467 21.1744 249.592 20.9763 249.716 20.8748C249.868 20.7515 250.119 20.6887 250.471 20.6887H252.839C253.19 20.6887 253.429 20.7515 253.554 20.8748C253.705 20.9739 253.842 21.172 253.969 21.4717L256.488 28.2871L258.558 19.8331C258.632 19.5842 258.732 19.4102 258.859 19.3111C258.983 19.1878 259.21 19.125 259.535 19.125H264.54C265.04 19.125 265.291 19.299 265.291 19.647C265.291 19.7219 265.267 19.8331 265.216 19.983L260.326 36.0716C260.226 36.4438 260.074 36.6927 259.874 36.816C259.699 36.9392 259.423 37.002 259.047 37.002H255.36C255.009 37.002 254.745 36.9392 254.569 36.816C254.394 36.6661 254.245 36.4196 254.118 36.0716L251.635 29.3311L249.152 36.0716C249.052 36.4196 248.901 36.6685 248.701 36.816C248.525 36.9392 248.264 37.002 247.912 37.002H244.262Z" fill="#D9F1E9"/>
<path d="M274.827 37.5595C272.469 37.5595 270.577 36.8152 269.146 35.3264C267.742 33.8111 267.039 31.6891 267.039 28.9582C267.039 26.8725 267.515 25.0478 268.47 23.4841C269.446 21.9205 270.813 20.7169 272.569 19.871C274.351 19.001 276.394 18.5684 278.701 18.5684C280.608 18.5684 282.287 18.7786 283.742 19.2016C285.222 19.5979 286.577 20.1828 287.805 20.9513V35.8485C287.805 36.3197 287.717 36.6315 287.541 36.7789C287.365 36.9288 287.016 37.0013 286.489 37.0013H282.651C282.375 37.0013 282.163 36.965 282.012 36.8901C281.86 36.791 281.736 36.6412 281.636 36.443L281.147 35.3264C280.42 36.095 279.541 36.6557 278.513 37.0013C277.51 37.3735 276.282 37.5595 274.827 37.5595ZM277.649 32.4939C278.626 32.4939 279.392 32.2571 279.944 31.7858C280.496 31.3145 280.771 30.6427 280.771 29.775V23.9651C280.293 23.7427 279.692 23.6291 278.965 23.6291C277.634 23.6291 276.57 24.0883 275.767 25.0067C274.99 25.9251 274.6 27.2157 274.6 28.8808C274.6 31.2904 275.618 32.4939 277.649 32.4939Z" fill="#D9F1E9"/>
<path d="M293.002 44.5218C292.275 44.5218 291.762 44.3719 291.459 44.0747C291.183 43.7774 291.047 43.3061 291.047 42.6584V21.3181C292.174 20.523 293.593 19.8656 295.297 19.3436C297.003 18.8216 298.783 18.5605 300.638 18.5605C308.214 18.5605 312 21.7386 312 28.0948C312 30.9756 311.197 33.2716 309.593 34.9851C307.987 36.6986 305.719 37.5542 302.784 37.5542C301.957 37.5542 301.153 37.4551 300.375 37.2569C299.623 37.0587 298.995 36.7856 298.495 36.4376V42.656C298.495 43.3013 298.344 43.7726 298.043 44.0723C297.743 44.3695 297.228 44.5194 296.5 44.5194H293.002V44.5218ZM301.166 32.5296C302.245 32.5296 303.048 32.1333 303.573 31.3382C304.124 30.5189 304.4 29.4265 304.4 28.061C304.4 26.4466 304.076 25.3179 303.424 24.6726C302.796 24.0032 301.817 23.6672 300.489 23.6672C299.635 23.6672 298.959 23.7784 298.458 24.0032V29.9243C298.458 30.7678 298.695 31.4131 299.171 31.8602C299.65 32.3073 300.314 32.5296 301.166 32.5296Z" fill="#D9F1E9"/>
<path fill-rule="evenodd" clip-rule="evenodd" d="M23.0919 48C15.9658 47.9952 10.224 46.301 6.213 43.2607C2.15319 40.1817 0 35.8169 0 30.8746C0 25.9322 2.14831 22.6792 4.5798 20.3591C6.48398 18.5392 8.58834 17.3768 10.0507 16.7049C9.71865 15.6995 9.30607 14.3824 8.93744 13.0217C8.44187 11.2019 7.9585 9.0654 7.9585 7.50174C7.9585 5.65047 8.36619 3.78954 9.4672 2.34429C10.6292 0.816877 12.3772 0 14.4815 0C16.1269 0 17.5233 0.604199 18.6146 1.64584C19.6594 2.64156 20.3552 3.96355 20.8361 5.34354C21.6808 7.76517 22.0079 10.8103 22.1007 13.8482H24.1172C24.2099 10.8103 24.5371 7.76758 25.3818 5.34354C25.8627 3.96596 26.556 2.64156 27.6033 1.64584C28.697 0.604199 30.0934 0 31.7363 0C33.8407 0 35.5911 0.816877 36.7531 2.34429C37.8517 3.78954 38.2618 5.65047 38.2618 7.50174C38.2618 9.0654 37.776 11.2019 37.2829 13.0217C36.9143 14.3824 36.4992 15.6995 36.1697 16.7049C37.6344 17.3744 39.7363 18.5392 41.6405 20.3591C44.072 22.6792 46.2203 26.1135 46.2203 30.8746C46.2203 35.6357 44.0671 40.1841 40.0073 43.2607C35.9963 46.301 30.2545 47.9952 23.1285 48H23.0919Z" fill="#633001"/>
<path d="M14.4815 1.76172C11.3982 1.76172 9.97986 4.06251 9.97986 7.2406C9.97986 9.76857 11.6277 14.8318 12.3039 16.8014C12.4553 17.2437 12.2161 17.7295 11.7815 17.9035C9.31096 18.8775 2.02136 22.4447 2.02136 30.6134C2.02136 39.2172 9.43058 45.7063 23.0919 45.716C23.0967 45.716 23.1016 45.716 23.1089 45.716C23.1163 45.716 23.1187 45.716 23.126 45.716C36.7873 45.7063 44.1965 39.2172 44.1965 30.6134C44.1965 22.0096 36.9069 18.8775 34.4364 17.9035C33.9994 17.7319 33.7626 17.2461 33.9139 16.8014C34.5902 14.8318 36.238 9.76857 36.238 7.2406C36.238 4.06009 34.8197 1.76172 31.7363 1.76172C27.3006 1.76172 26.1923 8.04781 26.1141 14.7931C26.1092 15.2426 25.7455 15.61 25.2939 15.61H20.9216C20.4724 15.61 20.1062 15.245 20.1013 14.7931C20.0232 8.04781 18.9173 1.76172 14.4791 1.76172H14.4815Z" fill="#D1884F"/>
<path d="M23.126 42.9614C13.0876 42.9614 2.04089 37.5864 2.0238 30.6309C2.0238 30.6405 2.0238 30.6526 2.0238 30.6623C2.0238 39.2733 9.44523 45.7648 23.126 45.7648C36.8068 45.7648 44.2283 39.2733 44.2283 30.6623V30.6309C44.2112 37.5864 33.162 42.9614 23.126 42.9614Z" fill="#FEDC90"/>
<path d="M17.5478 28.4939C17.5478 30.843 16.437 32.0659 15.0699 32.0659C13.7028 32.0659 12.592 30.843 12.592 28.4939C12.592 26.1448 13.7028 24.9219 15.0699 24.9219C16.437 24.9219 17.5478 26.1448 17.5478 28.4939Z" fill="#633001"/>
<path d="M33.6601 28.4939C33.6601 30.843 32.5493 32.0659 31.1822 32.0659C29.8151 32.0659 28.7043 30.843 28.7043 28.4939C28.7043 26.1448 29.8151 24.9219 31.1822 24.9219C32.5493 24.9219 33.6601 26.1448 33.6601 28.4939Z" fill="#633001"/>
</g>
<defs>
<clipPath id="clip0_6493_26142">
<rect width="312" height="48" fill="white"/>
</clipPath>
</defs>
</svg>
