<svg width="120" height="125" viewBox="0 0 120 125" fill="none" xmlns="http://www.w3.org/2000/svg">
<path fill-rule="evenodd" clip-rule="evenodd" d="M59.9525 125C41.4514 124.987 26.5441 120.576 16.1306 112.658C5.59024 104.64 0 93.2733 0 80.4026C0 67.5318 5.57756 59.0605 11.8903 53.0185C16.8341 48.2793 22.2976 45.252 26.0941 43.5023C25.2321 40.8841 24.161 37.4541 23.2039 33.9107C21.9173 29.1715 20.6623 23.6078 20.6623 19.5358C20.6623 14.7148 21.7208 9.86859 24.5793 6.10493C27.5963 2.12728 32.1344 0 37.5978 0C41.8698 0 45.4952 1.57344 48.3283 4.28604C51.041 6.87906 52.8474 10.3217 54.096 13.9155C56.289 20.2218 57.1383 28.1519 57.3792 36.0631H62.6145C62.8553 28.1519 63.7046 20.2281 65.8976 13.9155C67.1463 10.328 68.9463 6.87906 71.6653 4.28604C74.5048 1.57344 78.1302 0 82.3958 0C87.8593 0 92.4037 2.12728 95.4207 6.10493C98.2729 9.86859 99.3377 14.7148 99.3377 19.5358C99.3377 23.6078 98.0764 29.1715 96.7961 33.9107C95.839 37.4541 94.7615 40.8841 93.9059 43.5023C97.7088 45.2457 103.166 48.2793 108.11 53.0185C114.422 59.0605 120 68.0039 120 80.4026C120 92.8012 114.41 104.646 103.869 112.658C93.4559 120.576 78.5486 124.987 60.0475 125H59.9525Z" fill="#633001"/>
<path d="M37.5978 4.58781C29.5928 4.58781 25.9103 10.5795 25.9103 18.8557C25.9103 25.439 30.1886 38.6244 31.9442 43.7538C32.3372 44.9055 31.7161 46.1706 30.5879 46.6237C24.1737 49.1601 5.24798 58.4497 5.24798 79.7225C5.24798 102.128 24.4842 119.027 59.9525 119.052C59.9651 119.052 59.9778 119.052 59.9968 119.052C60.0158 119.052 60.0222 119.052 60.0412 119.052C95.5094 119.027 114.746 102.128 114.746 79.7225C114.746 57.3168 95.82 49.1601 89.4058 46.6237C88.2713 46.1769 87.6565 44.9118 88.0494 43.7538C89.8051 38.6244 94.0833 25.439 94.0833 18.8557C94.0833 10.5732 90.4009 4.58781 82.3958 4.58781C70.8794 4.58781 68.0019 20.9578 67.7991 38.5237C67.7864 39.6943 66.842 40.6509 65.6695 40.6509H54.3179C53.1516 40.6509 52.2009 39.7006 52.1882 38.5237C51.9854 20.9578 49.1142 4.58781 37.5915 4.58781H37.5978Z" fill="#D1884F"/>
<path d="M60.0412 111.879C33.9788 111.879 5.29869 97.8813 5.25432 79.7679C5.25432 79.793 5.25432 79.8245 5.25432 79.8497C5.25432 102.274 24.5223 119.179 60.0412 119.179C95.5601 119.179 114.828 102.274 114.828 79.8497V79.7679C114.784 97.8813 86.0973 111.879 60.0412 111.879Z" fill="#FEDC90"/>
<path d="M45.5585 74.2029C45.5585 80.3204 42.6746 83.505 39.1253 83.505C35.5759 83.505 32.6921 80.3204 32.6921 74.2029C32.6921 68.0854 35.5759 64.9007 39.1253 64.9007C42.6746 64.9007 45.5585 68.0854 45.5585 74.2029Z" fill="#633001"/>
<path d="M87.3902 74.2029C87.3902 80.3204 84.5064 83.505 80.957 83.505C77.4076 83.505 74.5238 80.3204 74.5238 74.2029C74.5238 68.0854 77.4076 64.9007 80.957 64.9007C84.5064 64.9007 87.3902 68.0854 87.3902 74.2029Z" fill="#633001"/>
</svg>
