<svg width="309" height="70" viewBox="0 0 309 70" fill="none" xmlns="http://www.w3.org/2000/svg">
<g opacity="0.9" clip-path="url(#clip0_6493_25405)">
<path fill-rule="evenodd" clip-rule="evenodd" d="M226.89 37.2047H225.95L213.713 1.40039H199.38V2.88245L216.642 52.8837H235.678L252.949 2.88245V1.40039H239.234L226.881 37.2047H226.89Z" fill="#D9F1E9"/>
<path d="M195.555 1.40039H181.303V52.8747H195.555V1.40039Z" fill="#D9F1E9"/>
<path fill-rule="evenodd" clip-rule="evenodd" d="M295.285 1.39258H295.294L282.941 37.2059H282L269.764 1.40162H255.431V2.89271L274.18 57.2136H256.425V69.1333H273.777C281.185 69.1333 286.963 66.612 289.758 58.5692C290.134 57.4938 308.991 2.88367 308.991 2.88367V1.39258H295.276H295.285Z" fill="#D9F1E9"/>
<path fill-rule="evenodd" clip-rule="evenodd" d="M108.661 0C102.176 0 96.1202 3.32559 92.3399 9.58817H91.462V1.45494H77.8726V69.1144H92.313V46.3233H93.1998C93.2984 46.4588 93.3969 46.6034 93.4865 46.7118C95.9231 49.7031 101.611 54.2577 108.679 54.2577C121.552 54.2577 130.358 43.0338 130.358 27.1379C130.358 11.2419 121.131 0 108.661 0ZM104.353 43.0971C97.6341 43.0971 92.9938 37.8195 92.9938 27.1379C92.9938 16.4562 97.6341 11.1787 104.353 11.1787C111.071 11.1787 115.935 16.5737 115.935 27.1379C115.935 37.702 111.188 43.0971 104.353 43.0971Z" fill="#D9F1E9"/>
<path fill-rule="evenodd" clip-rule="evenodd" d="M166.172 1.39258C159.481 1.39258 155.19 2.52219 152.673 9.58907H151.813V1.40162H131.146V13.2219H135.76C137.283 13.2219 138.026 13.7641 138.223 15.0203V24.8434H138.277V52.8759H152.717V25.5663C152.717 18.4995 154.616 14.1617 161.631 14.1617H176.752V1.39258H166.172Z" fill="#D9F1E9"/>
<path d="M26.8742 54.2391C41.7178 54.2391 53.7485 42.1025 53.7485 27.1283C53.7485 12.1542 41.7178 0.0175781 26.8742 0.0175781C12.0307 0.0175781 0 12.1542 0 27.1283C0 42.1025 12.0307 54.2391 26.8742 54.2391Z" fill="#D9F1E9"/>
<path d="M26.8742 70.0003C37.0147 70.0003 45.2383 68.2561 45.2383 66.1144C45.2383 63.9726 37.0237 62.2285 26.8742 62.2285C16.7247 62.2285 8.51013 63.9726 8.51013 66.1144C8.51013 68.2561 16.7247 70.0003 26.8742 70.0003Z" fill="#D9F1E9"/>
</g>
<defs>
<clipPath id="clip0_6493_25405">
<rect width="309" height="70" fill="white"/>
</clipPath>
</defs>
</svg>
