<svg width="120" height="82" viewBox="0 0 120 82" fill="none" xmlns="http://www.w3.org/2000/svg">
<path d="M119.912 40.536C119.691 39.2161 118.442 38.216 116.972 38.216H43.4716C42.7571 38.216 42.4943 37.6504 42.445 37.4782C42.3958 37.3061 42.2233 36.7158 42.7899 36.2567L81.2649 5.06443C82.39 4.16268 82.7596 2.59692 82.078 1.41645C81.6591 0.678654 80.9775 0.194989 80.1398 0.0474297C79.3268 -0.100129 78.4973 0.0966159 77.8568 0.637665L39.5543 31.707C38.9876 32.1743 38.4292 31.8792 38.2813 31.7808C38.1335 31.6824 37.6161 31.3135 37.7886 30.6085L42.5682 9.98306C42.8885 8.56486 42.1987 7.12206 40.975 6.6056C40.1948 6.28589 39.3572 6.31049 38.6016 6.70398C37.8954 7.07287 37.3534 7.75328 37.1809 8.56486L31.6704 32.3956C31.5226 33.035 30.9806 33.1826 30.8409 33.2236C30.6931 33.2728 30.1265 33.322 29.7405 32.8055L21.7991 22.4846C20.9204 21.3369 19.3518 20.9434 18.1693 21.5828C17.4384 21.9763 16.921 22.6567 16.7485 23.4683C16.576 24.2717 16.7485 25.1078 17.2659 25.7473L25.5275 36.4863C25.7985 36.8306 25.8232 37.2651 25.6507 37.634C25.4536 38.0274 25.0841 38.2488 24.6734 38.2488H2.98456C1.51455 38.2488 0.26628 39.2489 0.044546 40.5769C-0.103277 41.4049 0.118456 42.2165 0.68511 42.8559C1.22713 43.4953 1.98267 43.8314 2.82033 43.8314H21.6184C22.3329 43.8314 22.5957 44.3971 22.645 44.5692C22.6943 44.7414 22.8667 45.3316 22.3001 45.7907L9.99794 55.7755C8.89748 56.6527 8.55258 58.1938 9.1685 59.3251C9.5627 60.0629 10.2689 60.5712 11.1312 60.7433C11.9607 60.9155 12.7984 60.7187 13.4061 60.2023L25.5358 50.3404C26.1024 49.8731 26.6608 50.1683 26.8087 50.2666C26.9565 50.365 27.4739 50.7339 27.3014 51.4389L22.5218 72.089C22.2015 73.4334 22.8175 74.8024 23.9426 75.368C24.6981 75.7369 25.6097 75.7615 26.398 75.368C27.1782 74.9992 27.7449 74.3187 27.942 73.5072L33.4525 49.6764C33.6003 49.037 34.1423 48.8894 34.2819 48.8484C34.4544 48.8238 34.9964 48.7501 35.3824 49.2665L59.7896 80.9507C60.2577 81.5901 61.0132 81.9508 61.8262 82H61.9987C62.7789 82 63.518 81.6803 64.0354 81.1474C64.9634 80.1719 64.988 78.5816 64.1093 77.4257L39.5789 45.5939C39.3079 45.2496 39.2833 44.8152 39.4557 44.4463C39.6528 44.0528 40.0224 43.8314 40.433 43.8314H117.194C118.032 43.8314 118.787 43.4625 119.329 42.8559C119.871 42.2165 120.085 41.4131 119.97 40.5769L119.945 40.5523L119.912 40.536Z" fill="#4615C8"/>
</svg>
