<svg width="312" height="70" viewBox="0 0 312 70" fill="none" xmlns="http://www.w3.org/2000/svg">
<g opacity="0.9" clip-path="url(#clip0_6493_25288)">
<path d="M52.1586 19.1309H81.8226C82.613 19.1309 83.1166 19.7819 82.9277 20.5729L81.4449 26.9849C81.256 27.7759 80.4656 28.4269 79.6683 28.4269H62.5735C61.8041 28.4269 61.0277 29.0569 60.8598 29.8269V29.9109C60.671 30.6809 61.1536 31.3109 61.923 31.3109H77.2831C78.0735 31.3109 78.5771 31.9619 78.3882 32.7529L77.3041 37.4919C77.1152 38.2829 76.3249 38.9339 75.5275 38.9339H60.1674C59.398 38.9339 58.6216 39.5639 58.4537 40.3339C58.2858 41.1039 58.7685 41.7339 59.5379 41.7339H76.6326C77.423 41.7339 77.9266 42.3849 77.7378 43.1759L76.2339 49.6719C76.0451 50.4629 75.2547 51.1139 74.4573 51.1139H44.7933C44.0029 51.1139 43.4993 50.4629 43.6882 49.6719L50.389 20.6149C50.5778 19.8239 51.3682 19.1729 52.1656 19.1729L52.1446 19.1309H52.1586Z" fill="#D9F1E9"/>
<path d="M103.198 20.5738L98.6655 40.2718C98.4766 41.0628 98.9803 41.7138 99.7706 41.7138H114.256C115.047 41.7138 115.55 42.3648 115.362 43.1558L113.858 49.6518C113.669 50.4428 112.878 51.0938 112.102 51.0938H85.0051C84.2147 51.0938 83.7111 50.4428 83.9 49.6518L90.5798 20.6158C90.7686 19.8248 91.559 19.1738 92.3564 19.1738H102.065C102.855 19.1738 103.359 19.8248 103.17 20.6158L103.191 20.5738H103.198Z" fill="#D9F1E9"/>
<path d="M34.3573 19.1309H3.33637C2.54598 19.1309 1.7486 19.7819 1.58073 20.5729L0.0838896 27.0689C-0.104964 27.8599 0.398645 28.5109 1.18903 28.5109H3.48325C4.21069 28.5109 4.73528 29.1829 4.5884 29.8899L0.0419222 49.6509C-0.146931 50.4419 0.356678 51.0929 1.14706 51.0929H10.8765C11.6669 51.0929 12.4643 50.4419 12.6531 49.6509L14.5557 41.3979C14.7445 40.6069 15.5349 39.9559 16.3323 39.9559H18.7104C19.277 39.9559 19.7107 40.2709 19.8576 40.7469L22.8862 50.3369C23.0331 50.7989 23.4528 51.0859 23.9704 51.0859H34.1545C35.2596 51.0859 36.2179 49.8749 35.8891 48.9369L33.1123 40.9989C32.8605 40.2709 33.3851 39.3469 34.2174 38.9759C37.7427 37.4289 40.5405 34.0899 41.5827 29.5539C43.0656 23.1419 39.9739 19.1519 34.3363 19.1519L34.3573 19.1309ZM30.3704 29.8689C30.1815 30.6599 29.3912 31.3109 28.5938 31.3109H18.2838C17.4934 31.3109 16.9898 30.6599 17.1786 29.8689C17.3675 29.0779 18.1579 28.4269 18.9553 28.4269H29.2653C30.0556 28.4269 30.5593 29.0779 30.3704 29.8689Z" fill="#D9F1E9"/>
<path d="M161.204 49.0482L154.65 19.9912C154.524 19.4872 154.112 19.1582 153.545 19.1582H129.959C129.169 19.1582 128.371 19.8092 128.204 20.6002L126.7 27.0962C126.511 27.8872 127.015 28.5382 127.805 28.5382H130.162C131.078 28.5382 131.603 29.5602 131.078 30.3162L118.075 49.0972C117.425 50.0352 117.866 51.1202 118.908 51.1202H129.512C130.134 51.1202 130.785 50.7422 131.141 50.1612L133.086 47.1092C133.443 46.5422 134.065 46.1712 134.695 46.1712H145.55C146.138 46.1712 146.592 46.5282 146.718 47.0462L147.411 50.1822C147.537 50.7282 147.998 51.0782 148.6 51.0782H159.476C160.519 51.0782 161.463 49.9932 161.253 49.0552H161.211L161.204 49.0482ZM143.319 38.3522H140.248C139.269 38.3522 138.786 37.3722 139.332 36.4482L141.899 32.0172C142.647 30.7222 144.466 30.7432 144.613 32.0172L145.116 36.4482C145.221 37.3862 144.305 38.3522 143.319 38.3522Z" fill="#D9F1E9"/>
<path d="M204.165 19.1315H191.952C191.469 19.1315 190.952 19.3835 190.616 19.8175L185.755 26.5025C185.111 27.2935 183.957 27.4195 183.503 26.7335L178.683 19.5865C178.495 19.2925 178.159 19.1245 177.767 19.1245H167.184C165.953 19.1245 164.995 20.6085 165.659 21.4835L176.158 36.7715C176.494 37.2125 176.431 37.8775 176.032 38.4235L167.415 48.9725C166.667 49.8895 167.058 51.0375 168.122 51.0375H179.726C180.208 51.0375 180.726 50.7855 181.062 50.3515L204.878 21.1685C205.626 20.2515 205.235 19.1035 204.165 19.1035V19.1245V19.1315Z" fill="#D9F1E9"/>
<path d="M311.951 34.6155C311.762 33.4885 310.699 32.6345 309.447 32.6345H246.846C246.237 32.6345 246.013 32.1515 245.971 32.0045C245.929 31.8575 245.782 31.3535 246.265 30.9615L279.035 4.32645C279.993 3.55645 280.308 2.21945 279.727 1.21145C279.37 0.581453 278.79 0.168453 278.076 0.0424531C277.384 -0.0835469 276.677 0.0844531 276.132 0.546453L243.509 27.0765C243.027 27.4755 242.551 27.2235 242.425 27.1395C242.299 27.0555 241.858 26.7405 242.005 26.1385L246.076 8.52645C246.349 7.31545 245.761 6.08345 244.719 5.64245C244.055 5.36945 243.341 5.39045 242.698 5.72645C242.096 6.04145 241.635 6.62245 241.488 7.31545L236.794 27.6645C236.668 28.2105 236.207 28.3365 236.088 28.3715C235.962 28.4135 235.479 28.4555 235.151 28.0145L228.387 19.2015C227.638 18.2215 226.303 17.8855 225.295 18.4315C224.673 18.7675 224.232 19.3485 224.085 20.0415C223.938 20.7275 224.085 21.4415 224.526 21.9875L231.562 31.1575C231.793 31.4515 231.814 31.8225 231.667 32.1375C231.499 32.4735 231.185 32.6625 230.835 32.6625H212.362C211.11 32.6625 210.047 33.5165 209.858 34.6505C209.732 35.3575 209.921 36.0505 210.404 36.5965C210.865 37.1425 211.509 37.4295 212.222 37.4295H228.233C228.842 37.4295 229.065 37.9125 229.107 38.0595C229.149 38.2065 229.296 38.7105 228.814 39.1025L218.336 47.6285C217.398 48.3775 217.105 49.6935 217.629 50.6595C217.965 51.2895 218.566 51.7235 219.301 51.8705C220.007 52.0175 220.721 51.8495 221.238 51.4085L231.569 42.9875C232.052 42.5885 232.528 42.8405 232.654 42.9245C232.779 43.0085 233.22 43.3235 233.073 43.9255L229.002 61.5585C228.73 62.7065 229.254 63.8755 230.212 64.3585C230.856 64.6735 231.632 64.6945 232.304 64.3585C232.968 64.0435 233.451 63.4625 233.619 62.7695L238.312 42.4205C238.438 41.8745 238.9 41.7485 239.019 41.7135C239.166 41.6925 239.627 41.6295 239.956 42.0705L260.744 69.1255C261.142 69.6715 261.786 69.9795 262.478 70.0215H262.625C263.29 70.0215 263.919 69.7485 264.36 69.2935C265.15 68.4605 265.171 67.1025 264.423 66.1155L243.53 38.9345C243.299 38.6405 243.278 38.2695 243.425 37.9545C243.593 37.6185 243.908 37.4295 244.258 37.4295H309.636C310.349 37.4295 310.993 37.1145 311.454 36.5965C311.916 36.0505 312.098 35.3645 312 34.6505L311.979 34.6295L311.951 34.6155Z" fill="#4615C8"/>
</g>
<defs>
<clipPath id="clip0_6493_25288">
<rect width="312" height="70" fill="white"/>
</clipPath>
</defs>
</svg>
