<svg width="120" height="119" viewBox="0 0 120 119" fill="none" xmlns="http://www.w3.org/2000/svg">
<g opacity="0.9" clip-path="url(#clip0_6580_11603)">
<path d="M119.521 52.5008C63.626 70.5716 25.1425 83.0636 7.73086 88.6765C7.28616 87.9236 6.87567 87.1706 6.49939 86.3835C3.72858 80.9759 1.81296 75.1577 0.786733 69.0999C-1.12889 57.4976 0.444657 45.5874 5.37054 34.875C10.2622 24.1626 18.2668 15.1272 28.358 8.9325C38.415 2.73779 50.1482 -0.376677 61.984 0.0340216C73.854 0.44472 85.3135 4.31213 94.9601 11.1571C101.357 15.709 106.762 21.493 110.935 28.1327C115.074 34.7723 117.879 42.1307 119.145 49.8655V49.9339C119.282 50.7896 119.418 51.6452 119.521 52.5008Z" fill="#D9F1E9"/>
<path d="M85.0741 113.832C85.0741 113.832 66.7731 122.525 46.3512 117.392C45.9407 117.323 45.496 117.186 45.0855 117.084H45.0513C44.4014 116.947 35.9521 115.167 26.4082 108.767H26.374C24.561 107.535 22.748 106.166 20.935 104.626C19.3615 103.325 17.8221 101.819 16.317 100.211C16.2486 100.176 16.1802 100.142 16.146 100.074C15.1197 99.0128 14.1619 97.8833 13.2383 96.7539C13.1699 96.7197 13.1357 96.6512 13.1015 96.617C12.2463 95.5218 11.3911 94.3924 10.6043 93.263C10.5359 93.1945 10.5017 93.0919 10.4333 93.0234C10.4333 93.0234 50.0456 80.1548 119.897 57.5664C119.897 57.5664 119.932 57.806 119.932 58.2851C120.239 63.5558 120.547 96.1721 85.0741 113.832Z" fill="#D9F1E9"/>
</g>
<defs>
<clipPath id="clip0_6580_11603">
<rect width="120" height="119" fill="white"/>
</clipPath>
</defs>
</svg>
