<svg width="120" height="138" viewBox="0 0 120 138" fill="none" xmlns="http://www.w3.org/2000/svg">
<g opacity="0.9" clip-path="url(#clip0_6493_26081)">
<path d="M47.0848 31.4093C45.5944 31.1773 45.5306 31.1518 46.2324 31.0448C47.5774 30.8383 50.7523 31.1187 52.9395 31.6387C58.0463 32.8519 62.6964 35.9589 67.6578 41.4745L68.9747 42.9401L70.8607 42.6368C78.8056 41.3624 86.8858 42.3742 93.6464 45.494C95.507 46.3529 98.4368 48.0606 98.8043 48.499C98.9217 48.6392 99.1361 49.5389 99.2816 50.4998C99.7844 53.8235 99.5317 56.3723 98.5134 58.2737C97.9596 59.3085 97.929 59.6373 98.3016 60.5243C98.6002 61.2329 99.4271 61.7554 100.249 61.7528C101.928 61.7528 103.738 59.0383 104.575 55.2661L104.907 53.7674L105.565 54.5142C109.181 58.605 112.022 64.1844 112.509 68.158L112.637 69.1928L112.03 68.2523C110.983 66.6338 109.932 65.5301 108.587 64.6406C106.16 63.0374 103.595 62.492 96.8034 62.1351C90.6681 61.8114 87.1946 61.2889 83.7517 60.1675C77.8945 58.2609 74.9391 55.7198 67.9819 46.6002C64.8912 42.5501 62.9797 40.3097 61.0809 38.5052C56.7626 34.4041 52.5184 32.2555 47.0874 31.4144L47.0848 31.4093Z" fill="#FF007A"/>
<path d="M100.19 40.4498C100.346 37.7354 100.713 35.9461 101.453 34.3123C101.747 33.6649 102.023 33.1348 102.063 33.1348C102.104 33.1348 101.979 33.6114 101.78 34.1951C101.242 35.7804 101.152 37.952 101.525 40.4753C101.997 43.6792 102.263 44.1405 105.654 47.6018C107.244 49.2254 109.095 51.2721 109.763 52.1514L110.983 53.7495L109.763 52.6076C108.273 51.2109 104.843 48.4888 104.087 48.0988C103.579 47.8388 103.503 47.8414 103.192 48.1523C102.903 48.4403 102.842 48.8711 102.801 50.9076C102.74 54.0834 102.306 56.1224 101.26 58.1615C100.693 59.2651 100.604 59.0281 101.117 57.7843C101.499 56.854 101.538 56.4461 101.535 53.3697C101.53 47.1914 100.795 45.7055 96.487 43.1618C95.3947 42.5169 93.5979 41.5866 92.4929 41.0947C91.3878 40.6028 90.5073 40.1746 90.5405 40.144C90.663 40.0216 94.8638 41.2476 96.5533 41.8976C99.0672 42.8636 99.4832 42.9884 99.7895 42.8712C99.9937 42.7922 100.093 42.1983 100.193 40.4473L100.19 40.4498Z" fill="#FF007A"/>
<path d="M49.9815 51.0214C46.9546 46.8592 45.0813 40.477 45.4871 35.7082L45.6122 34.2324L46.3013 34.3573C47.5952 34.5918 49.8258 35.4227 50.8722 36.0548C53.7383 37.7931 54.9812 40.0819 56.2419 45.962C56.612 47.6825 57.0969 49.6323 57.3215 50.2925C57.6814 51.3553 59.0391 53.8353 60.1442 55.4461C60.9405 56.6058 60.4122 57.1564 58.6537 56.9984C55.9689 56.7562 52.332 54.2482 49.984 51.024L49.9815 51.0214Z" fill="#FF007A"/>
<path d="M96.5176 81.9968C82.371 76.3079 77.3892 71.3708 77.3892 63.0388C77.3892 61.8128 77.4325 60.8086 77.4836 60.8086C77.5346 60.8086 78.0833 61.2139 78.701 61.7083C81.5696 64.0048 84.7828 64.9886 93.6745 66.2834C98.9064 67.0455 101.852 67.6623 104.57 68.5621C113.204 71.4218 118.545 77.2255 119.821 85.1293C120.191 87.4258 119.974 91.7333 119.375 94.0042C118.9 95.7986 117.456 99.0279 117.073 99.1528C116.965 99.186 116.861 98.7807 116.835 98.2276C116.69 95.2583 115.189 92.3705 112.665 90.204C109.796 87.7418 105.945 85.7843 96.5227 81.9943L96.5176 81.9968Z" fill="#FF007A"/>
<path d="M86.5872 84.3597C86.4085 83.307 86.1022 81.9612 85.9032 81.3699L85.5433 80.2969L86.2145 81.0488C87.141 82.0887 87.876 83.4192 88.4962 85.1931C88.9709 86.5465 89.0245 86.9493 89.0194 89.1463C89.0168 91.3052 88.9556 91.7563 88.5191 92.9746C87.8275 94.8939 86.9725 96.2575 85.5331 97.718C82.9503 100.343 79.6274 101.799 74.8319 102.403C73.9973 102.507 71.5702 102.683 69.4341 102.795C64.0516 103.076 60.5117 103.652 57.3292 104.768C56.8724 104.929 56.464 105.025 56.4206 104.985C56.2905 104.857 58.4598 103.567 60.2489 102.706C62.773 101.493 65.2843 100.83 70.9143 99.8921C73.6936 99.4282 76.5674 98.8675 77.2947 98.6457C84.1805 96.5379 87.7203 91.0962 86.5872 84.3622V84.3597Z" fill="#FF007A"/>
<path d="M93.0722 95.8637C91.1938 91.8289 90.7625 87.9318 91.791 84.2998C91.9007 83.9123 92.0794 83.5938 92.184 83.5938C92.2887 83.5938 92.7327 83.8333 93.1692 84.1264C94.0343 84.7101 95.7724 85.6889 100.399 88.2096C106.175 91.3549 109.467 93.789 111.705 96.5697C113.666 99.0064 114.88 101.782 115.465 105.164C115.794 107.081 115.603 111.692 115.11 113.624C113.558 119.71 109.95 124.489 104.802 127.278C104.046 127.686 103.37 128.022 103.299 128.025C103.225 128.025 103.5 127.329 103.909 126.475C105.642 122.861 105.838 119.343 104.529 115.431C103.727 113.035 102.094 110.112 98.7941 105.169C94.9582 99.4244 94.0165 97.8951 93.0722 95.8688V95.8637Z" fill="#FF007A"/>
<path d="M39.9362 117.633C45.186 113.206 51.717 110.061 57.6686 109.097C60.2335 108.682 64.5033 108.845 66.8794 109.454C70.6846 110.428 74.0892 112.605 75.8604 115.202C77.5908 117.738 78.3335 119.95 79.1068 124.869C79.4105 126.809 79.7422 128.759 79.8443 129.2C80.4237 131.749 81.5543 133.788 82.9529 134.81C85.1758 136.436 89.004 136.535 92.771 135.07C93.4091 134.82 93.9654 134.649 94.0037 134.687C94.1415 134.823 92.2427 136.092 90.9054 136.757C89.1061 137.654 87.6744 138.003 85.7705 138.003C82.3225 138.003 79.4564 136.25 77.0676 132.676C76.598 131.973 75.5414 129.868 74.7196 127.997C72.1981 122.249 70.9501 120.498 68.0227 118.584C65.4731 116.917 62.1859 116.619 59.7129 117.83C56.464 119.42 55.558 123.567 57.8855 126.195C58.8094 127.24 60.5347 128.14 61.946 128.315C64.585 128.644 66.8513 126.638 66.8513 123.977C66.8513 122.249 66.1852 121.265 64.5135 120.511C62.2268 119.481 59.7716 120.684 59.7818 122.83C59.7869 123.745 60.185 124.319 61.1038 124.734C61.6934 124.999 61.7061 125.022 61.2263 124.923C59.1285 124.49 58.6384 121.964 60.3254 120.287C62.3493 118.276 66.5348 119.163 67.9742 121.91C68.5791 123.065 68.648 125.361 68.1223 126.751C66.9432 129.855 63.508 131.489 60.0217 130.599C57.6482 129.995 56.6835 129.34 53.8225 126.396C48.8509 121.281 46.9215 120.289 39.7525 119.173L38.3794 118.959L39.9413 117.641L39.9362 117.633Z" fill="#FF007A"/>
<path fill-rule="evenodd" clip-rule="evenodd" d="M2.44474 3.05857C19.0491 23.1839 44.6473 54.519 45.9182 56.2725C46.9672 57.7203 46.5716 59.0227 44.7749 60.0448C43.7744 60.6132 41.7199 61.1866 40.6914 61.1866C39.5276 61.1866 38.2158 60.6259 37.2613 59.7211C36.5875 59.0813 33.8618 55.0211 27.5759 45.277C22.765 37.8217 18.7377 31.6383 18.628 31.5338C18.4578 31.3741 21.2771 36.4828 27.0858 46.8598C32.5526 56.6294 34.3978 60.083 34.3978 60.5443C34.3978 61.4848 34.14 61.9768 32.9813 63.2716C31.0468 65.4279 30.1816 67.8492 29.5589 72.8602C28.8596 78.4777 26.8919 82.4462 21.4379 89.2388C18.2452 93.2149 17.722 93.9439 16.918 95.5471C15.9023 97.5658 15.6241 98.6949 15.5118 101.244C15.3919 103.938 15.6241 105.679 16.4484 108.255C17.1707 110.511 17.9236 112 19.8479 114.979C21.5094 117.548 22.4664 119.46 22.4664 120.207C22.4664 120.801 22.5787 120.803 25.1539 120.222C31.3173 118.833 36.3196 116.389 39.1346 113.394C40.8752 111.541 41.2861 110.516 41.2988 107.975C41.3065 106.313 41.2503 105.964 40.7986 105.008C40.0661 103.453 38.7339 102.159 35.7964 100.153C31.9477 97.525 30.3016 95.4095 29.8473 92.4987C29.4747 90.1105 29.906 88.4257 32.037 83.9704C34.2421 79.3571 34.7883 77.3894 35.1558 72.7404C35.3957 69.7353 35.7249 68.5501 36.5901 67.5994C37.491 66.6079 38.3026 66.2715 40.5332 65.9682C44.17 65.4712 46.4874 64.5332 48.3913 62.7796C50.0425 61.2606 50.7342 59.795 50.8414 57.5903L50.923 55.9183L49.9991 54.8427C46.6558 50.9506 0.206501 0 -0.000224163 0C-0.0436109 0 1.05637 1.37636 2.44474 3.05857ZM24.3397 104.292C25.0952 102.956 24.6945 101.239 23.4286 100.397C22.2342 99.6048 20.3788 99.9769 20.3788 101.012C20.3788 101.328 20.5523 101.557 20.9479 101.759C21.6115 102.1 21.6574 102.482 21.1368 103.265C20.6085 104.058 20.6519 104.753 21.2567 105.227C22.2342 105.99 23.6149 105.572 24.3397 104.292Z" fill="#FF007A"/>
<path fill-rule="evenodd" clip-rule="evenodd" d="M53.215 66.8394C51.5076 67.3644 49.8487 69.1715 49.3332 71.0653C49.0193 72.2225 49.1979 74.2488 49.6675 74.8758C50.4255 75.8876 51.1606 76.1527 53.1461 76.14C57.0356 76.1119 60.4147 74.4476 60.8077 72.3652C61.1293 70.6575 59.6465 68.2922 57.5997 67.2548C56.5456 66.7196 54.2997 66.5055 53.215 66.8394ZM57.7604 70.3899C58.3602 69.5386 58.0973 68.6184 57.079 67.9965C55.1368 66.8113 52.1993 67.7926 52.1993 69.6252C52.1993 70.5377 53.7306 71.5317 55.1343 71.5317C56.0684 71.5317 57.347 70.9761 57.7604 70.3899Z" fill="#FF007A"/>
</g>
<defs>
<clipPath id="clip0_6493_26081">
<rect width="120" height="138" fill="white"/>
</clipPath>
</defs>
</svg>
