<svg width="1117" height="662" viewBox="0 0 1117 662" fill="none" xmlns="http://www.w3.org/2000/svg">
<g clip-path="url(#clip0_5539_8511)">
<rect x="33" y="542.5" width="151" height="363" transform="rotate(-30 33 542.5)" fill="#FF0000"/>
<rect x="124" y="406.5" width="151" height="701.633" transform="rotate(-30 124 406.5)" fill="#00D5FF"/>
<rect x="215" y="270.5" width="151" height="701.633" transform="rotate(-30 215 270.5)" fill="#00D4FF"/>
<rect x="306" y="134.5" width="151" height="701.633" transform="rotate(-30 306 134.5)" fill="#00D4FF"/>
<rect x="397" y="-1.5" width="151" height="1010.8" transform="rotate(-30 397 -1.5)" fill="#FF0000"/>
<rect x="488" y="-137.5" width="151" height="1271.66" transform="rotate(-30 488 -137.5)" fill="#FF0000"/>
<rect x="579" y="-273.5" width="151" height="1379.64" transform="rotate(-30 579 -273.5)" fill="#00D4FF"/>
<rect x="697" y="-337.5" width="151" height="1379.64" transform="rotate(-30 697 -337.5)" fill="#00D4FF"/>
<rect x="815" y="-401.5" width="92.2985" height="1379.64" transform="rotate(-30 815 -401.5)" fill="#00D4FF"/>
</g>
<defs>
<clipPath id="clip0_5539_8511">
<rect width="1117" height="662" fill="white"/>
</clipPath>
</defs>
</svg>
