<svg width="52" height="22" viewBox="0 0 52 22" fill="none" xmlns="http://www.w3.org/2000/svg">
<g clip-path="url(#clip0_5022_70215)">
<rect width="4" height="4" fill="#D9F1E9"/>
</g>
<g clip-path="url(#clip1_5022_70215)">
<rect x="6" width="4" height="4" fill="#889697"/>
</g>
<g clip-path="url(#clip2_5022_70215)">
<rect x="18" width="4" height="4" fill="#D9F1E9"/>
</g>
<g clip-path="url(#clip3_5022_70215)">
<rect x="24" width="4" height="4" fill="#D9F1E9"/>
</g>
<g clip-path="url(#clip4_5022_70215)">
<rect x="30" width="4" height="4" fill="#D9F1E9"/>
</g>
<g clip-path="url(#clip5_5022_70215)">
<rect x="36" width="4" height="4" fill="#889697"/>
</g>
<g clip-path="url(#clip6_5022_70215)">
<rect x="48" width="4" height="4" fill="#AEE900"/>
</g>
<g clip-path="url(#clip7_5022_70215)">
<rect y="6" width="4" height="4" fill="#AEE900"/>
</g>
<g clip-path="url(#clip8_5022_70215)">
<rect x="6" y="6" width="4" height="4" fill="#D9F1E9"/>
</g>
<g clip-path="url(#clip9_5022_70215)">
<rect x="18" y="6" width="4" height="4" fill="#889697"/>
</g>
<g clip-path="url(#clip10_5022_70215)">
<rect x="24" y="6" width="4" height="4" fill="#D9F1E9"/>
</g>
<g clip-path="url(#clip11_5022_70215)">
<rect x="30" y="6" width="4" height="4" fill="#889697"/>
</g>
<g clip-path="url(#clip12_5022_70215)">
<rect x="36" y="6" width="4" height="4" fill="#889697"/>
</g>
<g clip-path="url(#clip13_5022_70215)">
<rect x="42" y="6" width="4" height="4" fill="#D9F1E9"/>
</g>
<g clip-path="url(#clip14_5022_70215)">
<rect y="12" width="4" height="4" fill="#D9F1E9"/>
</g>
<g clip-path="url(#clip15_5022_70215)">
<rect x="12" y="12" width="4" height="4" fill="#D9F1E9"/>
</g>
<g clip-path="url(#clip16_5022_70215)">
<rect x="18" y="12" width="4" height="4" fill="#D9F1E9"/>
</g>
<g clip-path="url(#clip17_5022_70215)">
<rect x="24" y="12" width="4" height="4" fill="#889697"/>
</g>
<g clip-path="url(#clip18_5022_70215)">
<rect x="36" y="12" width="4" height="4" fill="#D9F1E9"/>
</g>
<g clip-path="url(#clip19_5022_70215)">
<rect x="42" y="12" width="4" height="4" fill="#D9F1E9"/>
</g>
<g clip-path="url(#clip20_5022_70215)">
<rect x="48" y="12" width="4" height="4" fill="#889697"/>
</g>
<g clip-path="url(#clip21_5022_70215)">
<rect y="18" width="4" height="4" fill="#D9F1E9"/>
</g>
<g clip-path="url(#clip22_5022_70215)">
<rect x="6" y="18" width="4" height="4" fill="#889697"/>
</g>
<g clip-path="url(#clip23_5022_70215)">
<rect x="12" y="18" width="4" height="4" fill="#D9F1E9"/>
</g>
<g clip-path="url(#clip24_5022_70215)">
<rect x="18" y="18" width="4" height="4" fill="#889697"/>
</g>
<g clip-path="url(#clip25_5022_70215)">
<rect x="24" y="18" width="4" height="4" fill="#D9F1E9"/>
</g>
<g clip-path="url(#clip26_5022_70215)">
<rect x="30" y="18" width="4" height="4" fill="#D9F1E9"/>
</g>
<g clip-path="url(#clip27_5022_70215)">
<rect x="42" y="18" width="4" height="4" fill="#AEE900"/>
</g>
<g clip-path="url(#clip28_5022_70215)">
<rect x="48" y="18" width="4" height="4" fill="#D9F1E9"/>
</g>
<defs>
<clipPath id="clip0_5022_70215">
<rect width="4" height="4" fill="white"/>
</clipPath>
<clipPath id="clip1_5022_70215">
<rect width="4" height="4" fill="white" transform="translate(6)"/>
</clipPath>
<clipPath id="clip2_5022_70215">
<rect width="4" height="4" fill="white" transform="translate(18)"/>
</clipPath>
<clipPath id="clip3_5022_70215">
<rect width="4" height="4" fill="white" transform="translate(24)"/>
</clipPath>
<clipPath id="clip4_5022_70215">
<rect width="4" height="4" fill="white" transform="translate(30)"/>
</clipPath>
<clipPath id="clip5_5022_70215">
<rect width="4" height="4" fill="white" transform="translate(36)"/>
</clipPath>
<clipPath id="clip6_5022_70215">
<rect width="4" height="4" fill="white" transform="translate(48)"/>
</clipPath>
<clipPath id="clip7_5022_70215">
<rect width="4" height="4" fill="white" transform="translate(0 6)"/>
</clipPath>
<clipPath id="clip8_5022_70215">
<rect width="4" height="4" fill="white" transform="translate(6 6)"/>
</clipPath>
<clipPath id="clip9_5022_70215">
<rect width="4" height="4" fill="white" transform="translate(18 6)"/>
</clipPath>
<clipPath id="clip10_5022_70215">
<rect width="4" height="4" fill="white" transform="translate(24 6)"/>
</clipPath>
<clipPath id="clip11_5022_70215">
<rect width="4" height="4" fill="white" transform="translate(30 6)"/>
</clipPath>
<clipPath id="clip12_5022_70215">
<rect width="4" height="4" fill="white" transform="translate(36 6)"/>
</clipPath>
<clipPath id="clip13_5022_70215">
<rect width="4" height="4" fill="white" transform="translate(42 6)"/>
</clipPath>
<clipPath id="clip14_5022_70215">
<rect width="4" height="4" fill="white" transform="translate(0 12)"/>
</clipPath>
<clipPath id="clip15_5022_70215">
<rect width="4" height="4" fill="white" transform="translate(12 12)"/>
</clipPath>
<clipPath id="clip16_5022_70215">
<rect width="4" height="4" fill="white" transform="translate(18 12)"/>
</clipPath>
<clipPath id="clip17_5022_70215">
<rect width="4" height="4" fill="white" transform="translate(24 12)"/>
</clipPath>
<clipPath id="clip18_5022_70215">
<rect width="4" height="4" fill="white" transform="translate(36 12)"/>
</clipPath>
<clipPath id="clip19_5022_70215">
<rect width="4" height="4" fill="white" transform="translate(42 12)"/>
</clipPath>
<clipPath id="clip20_5022_70215">
<rect width="4" height="4" fill="white" transform="translate(48 12)"/>
</clipPath>
<clipPath id="clip21_5022_70215">
<rect width="4" height="4" fill="white" transform="translate(0 18)"/>
</clipPath>
<clipPath id="clip22_5022_70215">
<rect width="4" height="4" fill="white" transform="translate(6 18)"/>
</clipPath>
<clipPath id="clip23_5022_70215">
<rect width="4" height="4" fill="white" transform="translate(12 18)"/>
</clipPath>
<clipPath id="clip24_5022_70215">
<rect width="4" height="4" fill="white" transform="translate(18 18)"/>
</clipPath>
<clipPath id="clip25_5022_70215">
<rect width="4" height="4" fill="white" transform="translate(24 18)"/>
</clipPath>
<clipPath id="clip26_5022_70215">
<rect width="4" height="4" fill="white" transform="translate(30 18)"/>
</clipPath>
<clipPath id="clip27_5022_70215">
<rect width="4" height="4" fill="white" transform="translate(42 18)"/>
</clipPath>
<clipPath id="clip28_5022_70215">
<rect width="4" height="4" fill="white" transform="translate(48 18)"/>
</clipPath>
</defs>
</svg>
