<svg
  width="252"
  height="300"
  viewBox="0 0 252 300"
  fill="none"
  xmlns="http://www.w3.org/2000/svg"
>
  <g clip-path="url(#clip0_5350_17592)">
    <path
      fill-rule="evenodd"
      clip-rule="evenodd"
      d="M151.818 106.866C160.995 102.29 172.672 95.554 184.363 86.325C186.828 91.444 187.098 95.911 185.828 99.518C184.928 102.06 183.232 104.271 181.002 106.03C178.587 107.931 175.571 109.315 172.237 110.063C165.911 111.488 158.525 110.656 151.818 106.866ZM153.409 153.752L165.557 160.769C140.753 174.671 134.01 200.485 126 225.628C117.991 200.485 111.247 174.671 86.4442 160.769L98.5922 153.752C99.7674 153.308 100.772 152.503 101.462 151.453C102.151 150.403 102.491 149.162 102.432 147.907C101.319 124.36 107.677 113.947 116.253 107.409C119.329 105.067 122.687 103.891 126 103.891C129.313 103.891 132.671 105.067 135.748 107.409C144.324 113.947 150.682 124.36 149.569 147.907C149.51 149.162 149.85 150.403 150.54 151.453C151.23 152.503 152.234 153.308 153.409 153.752ZM126 0C140.042 0.377 154.119 3.103 166.336 8.406C174.796 12.083 182.69 16.94 189.838 22.748C193.066 25.37 195.724 27.903 198.652 30.819C206.549 31.092 218.09 22.319 223.448 14.11C214.227 44.34 172.149 80.039 143.018 93.699C143.006 93.694 142.998 93.687 142.989 93.681C137.761 89.689 131.881 87.693 126 87.693C120.119 87.693 114.24 89.689 109.012 93.681C109.003 93.686 108.995 93.695 108.983 93.699C79.8512 80.039 37.7742 44.34 28.5532 14.11C33.9102 22.319 45.4512 31.092 53.3482 30.819C56.2772 27.904 58.9352 25.37 62.1622 22.748C69.3102 16.94 77.2042 12.083 85.6642 8.406C97.8822 3.103 111.959 0.377 126 0ZM100.182 106.866C91.0062 102.29 79.3282 95.554 67.6382 86.325C65.1732 91.444 64.9032 95.911 66.1722 99.518C67.0732 102.06 68.7692 104.271 70.9982 106.03C73.4142 107.931 76.4302 109.315 79.7642 110.063C86.0902 111.488 93.4752 110.656 100.182 106.866Z"
      fill="white"
    />
    <path
      fill-rule="evenodd"
      clip-rule="evenodd"
      d="M197.167 75.016C203.603 68.521 209.274 61.332 213.834 54.917L216.15 59.276C223.606 74.193 227.48 89.05 227.48 105.77L227.464 132.302L227.604 146.056C228.144 179.822 235.45 213.985 252 245.249L217.373 217.327L192.872 257.086L167.132 232.855L126 299.604L84.868 232.856L59.129 257.087L34.628 217.328L0 245.25C16.55 213.986 23.856 179.823 24.397 146.057L24.537 132.303L24.521 105.771C24.521 89.05 28.394 74.193 35.852 59.277L38.167 54.918C42.727 61.333 48.397 68.521 54.834 75.017L52.824 79.192C48.919 87.301 47.626 96.368 50.668 104.991C52.629 110.545 56.208 115.308 60.822 118.944C65.302 122.475 70.604 124.855 76.155 126.105C79.771 126.919 83.455 127.254 87.115 127.14C86.261 131.981 85.888 137.002 85.864 142.118L53.2 160.984L78.406 175.113C80.4206 176.243 82.3385 177.537 84.14 178.982C104.921 197.64 117.415 252.837 126.001 279.798C134.588 252.837 147.081 197.64 167.863 178.982C169.664 177.536 171.582 176.242 173.597 175.113L198.803 160.984L166.138 142.118C166.114 137.002 165.741 131.981 164.887 127.14C168.547 127.254 172.231 126.919 175.847 126.105C181.398 124.855 186.701 122.475 191.18 118.944C195.793 115.308 199.373 110.545 201.333 104.991C204.376 96.368 203.082 87.302 199.178 79.192L197.168 75.017L197.167 75.016Z"
      fill="white"
    />
  </g>
  <defs>
    <clipPath id="clip0_5350_17592">
      <rect width="252" height="300" fill="white" />
    </clipPath>
  </defs>
</svg>
