<svg width="100" height="35" viewBox="0 0 100 35" fill="none" xmlns="http://www.w3.org/2000/svg">
<g clip-path="url(#clip0_8178_13078)">
<path d="M17.5345 34.7553C27.2174 34.7553 35.067 26.9751 35.067 17.3777C35.067 7.78024 27.2174 0 17.5345 0C7.85153 0 0.00195312 7.78024 0.00195312 17.3777C0.00195312 26.9751 7.85153 34.7553 17.5345 34.7553Z" fill="#F06040"/>
<path d="M27.7615 3.26411C24.9452 1.25889 21.5923 0.126448 18.1266 0.00998314C14.661 -0.106482 11.2384 0.798261 8.29158 2.6098C5.34475 4.42134 3.00607 7.05832 1.57127 10.1873C0.136473 13.3162 -0.329994 16.7966 0.230855 20.1883C0.791705 23.58 2.35468 26.7307 4.72214 29.242C7.08959 31.7533 10.1552 33.5123 13.5313 34.2967C16.9074 35.0811 20.4423 34.8556 23.6891 33.6487C26.9359 32.4418 29.7487 30.3077 31.7718 27.5164C33.1151 25.6629 34.0769 23.5654 34.6024 21.3436C35.1278 19.1217 35.2066 16.819 34.8342 14.567C34.4618 12.315 33.6456 10.1577 32.432 8.21833C31.2185 6.27898 29.6314 4.59553 27.7615 3.26411Z" fill="#F1603F"/>
<path d="M3.05176 27.1798C3.05176 27.1798 14.6374 23.4179 35.0566 16.8179C35.0566 16.8179 36.1751 27.6263 24.8716 33.2641C24.8716 33.2641 19.2976 35.9123 13.1824 34.2135C13.1824 34.2135 7.09314 33.0742 3.05176 27.1798Z" fill="#2B286C"/>
<path d="M45.6143 8.6958H51.6938C52.7788 8.6958 53.7602 8.87543 54.6378 9.23468C55.5313 9.59394 56.2893 10.1328 56.9116 10.8513C57.5499 11.5535 58.0365 12.4435 58.3716 13.5213C58.7227 14.5827 58.8982 15.8238 58.8982 17.2445C58.8982 18.6652 58.7227 19.9144 58.3716 20.9922C58.0365 22.0536 57.5499 22.9436 56.9116 23.6621C56.2893 24.3643 55.5313 24.895 54.6378 25.2543C53.7602 25.6135 52.7788 25.7932 51.6938 25.7932H45.6143V8.6958ZM51.6938 22.9273C52.8746 22.9273 53.808 22.5762 54.4942 21.874C55.1963 21.1555 55.5473 20.0614 55.5473 18.5917V15.8973C55.5473 14.4276 55.1963 13.3416 54.4942 12.6395C53.808 11.9209 52.8746 11.5617 51.6938 11.5617H48.7737V22.9273H51.6938Z" fill="#2D2D2D"/>
<path d="M69.1523 23.662H69.0327C68.921 23.9886 68.7694 24.2989 68.5779 24.5928C68.4024 24.8704 68.171 25.1235 67.8838 25.3522C67.6125 25.5808 67.2774 25.7604 66.8785 25.891C66.4955 26.0217 66.0488 26.087 65.5381 26.087C64.2457 26.087 63.2563 25.6543 62.5702 24.7888C61.8841 23.9233 61.541 22.6904 61.541 21.0901V13.0068H64.6047V20.7716C64.6047 21.6534 64.7722 22.3311 65.1073 22.8047C65.4424 23.2619 65.977 23.4906 66.711 23.4906C67.0141 23.4906 67.3093 23.4497 67.5966 23.3681C67.8997 23.2864 68.163 23.164 68.3864 23.0007C68.6098 22.821 68.7933 22.6087 68.9369 22.3638C69.0805 22.1025 69.1523 21.8004 69.1523 21.4575V13.0068H72.216V25.7931H69.1523V23.662Z" fill="#2D2D2D"/>
<path d="M75.5166 25.7932V13.0069H78.5803V15.1379H78.7C78.9553 14.4521 79.3542 13.8805 79.8967 13.4233C80.4552 12.9497 81.2211 12.7129 82.1945 12.7129C83.487 12.7129 84.4763 13.1457 85.1624 14.0112C85.8486 14.8767 86.1916 16.1096 86.1916 17.7099V25.7932H83.128V18.0283C83.128 17.1138 82.9684 16.428 82.6493 15.9708C82.3301 15.5135 81.8036 15.2849 81.0696 15.2849C80.7504 15.2849 80.4393 15.3339 80.1361 15.4319C79.8489 15.5135 79.5856 15.6442 79.3462 15.8238C79.1228 15.9871 78.9393 16.1994 78.7957 16.4607C78.6521 16.7056 78.5803 16.9995 78.5803 17.3425V25.7932H75.5166Z" fill="#2D2D2D"/>
<path d="M94.3987 26.0871C93.4733 26.0871 92.6435 25.932 91.9095 25.6217C91.1914 25.2951 90.5771 24.846 90.0665 24.2745C89.5718 23.6866 89.1889 22.9844 88.9176 22.1679C88.6464 21.3351 88.5107 20.4043 88.5107 19.3755C88.5107 18.3631 88.6384 17.4486 88.8937 16.6321C89.1649 15.8156 89.5479 15.1216 90.0426 14.5501C90.5372 13.9622 91.1436 13.5131 91.8616 13.2028C92.5797 12.8762 93.3935 12.7129 94.303 12.7129C95.2764 12.7129 96.1221 12.8844 96.8401 13.2273C97.5582 13.5703 98.1486 14.0357 98.6113 14.6235C99.074 15.2114 99.4171 15.8973 99.6405 16.6811C99.8799 17.4486 99.9995 18.2733 99.9995 19.1551V20.1839H91.6941V20.5023C91.6941 21.4331 91.9494 22.1843 92.46 22.7558C92.9706 23.311 93.7286 23.5886 94.7338 23.5886C95.4997 23.5886 96.1221 23.4253 96.6008 23.0987C97.0954 22.7721 97.5342 22.3557 97.9172 21.8495L99.5687 23.7356C99.0581 24.4705 98.356 25.0502 97.4624 25.4747C96.5848 25.883 95.5636 26.0871 94.3987 26.0871ZM94.3509 15.0644C93.5371 15.0644 92.8908 15.3421 92.4121 15.8973C91.9334 16.4525 91.6941 17.171 91.6941 18.0528V18.2488H96.8162V18.0283C96.8162 17.1465 96.6008 16.4362 96.1699 15.8973C95.7551 15.3421 95.1487 15.0644 94.3509 15.0644Z" fill="#2D2D2D"/>
</g>
<defs>
<clipPath id="clip0_8178_13078">
<rect width="100" height="35" fill="white"/>
</clipPath>
</defs>
</svg>
