<svg
  width="72"
  height="67"
  viewBox="0 0 72 67"
  fill="none"
  xmlns="http://www.w3.org/2000/svg"
>
  <g clip-path="url(#clip0_5350_17596)">
    <path
      d="M71.9078 67.0006H60.7517V40.2794C60.7517 38.8205 60.4942 37.519 59.9793 36.3748C59.493 35.2019 58.8208 34.2008 57.9626 33.3712C57.1045 32.5416 56.089 31.9123 54.9162 31.4832C53.772 31.0256 52.5276 30.7967 51.1832 30.7967H31.66V67.0006H20.5039V25.1758C20.5039 24.4034 20.6469 23.6883 20.933 23.0304C21.219 22.3438 21.6195 21.7574 22.1344 21.2711C22.6493 20.7562 23.25 20.3558 23.9366 20.0697C24.6231 19.7837 25.3525 19.6406 26.1249 19.6406H51.269C52.6706 19.6406 54.1438 19.798 55.6885 20.1126C57.2618 20.4273 58.8065 20.9422 60.3226 21.6573C61.8673 22.3438 63.3261 23.2306 64.6992 24.3176C66.1009 25.376 67.3309 26.6775 68.3893 28.2222C69.4763 29.7383 70.3345 31.4976 70.9638 33.4999C71.5931 35.5023 71.9078 37.7621 71.9078 40.2794V67.0006Z"
      fill="url(#paint0_linear_5350_17596)"
    />
    <path
      d="M55.5373 11.1561H15.7473C14.2312 11.1561 13.087 11.5423 12.3146 12.3146C11.5423 13.0584 11.1561 14.1597 11.1561 15.6185V66.5075H0V15.6185C0 13.702 0.243146 11.9856 0.729437 10.4696C1.21573 8.95348 1.85935 7.62333 2.6603 6.47912C3.48986 5.3063 4.43383 4.31941 5.49223 3.51846C6.55063 2.6889 7.65194 2.01668 8.79615 1.50178C9.96897 0.986885 11.1418 0.615015 12.3146 0.386172C13.4874 0.128724 14.603 0 15.6614 0H55.5373V11.1561Z"
      fill="url(#paint1_linear_5350_17596)"
    />
  </g>
  <defs>
    <linearGradient
      id="paint0_linear_5350_17596"
      x1="0.637764"
      y1="5.56304"
      x2="94.6439"
      y2="95.1146"
      gradientUnits="userSpaceOnUse"
    >
      <stop offset="0.225777" stop-color="#EAFDEC" />
      <stop offset="0.479925" stop-color="#8565CC" />
    </linearGradient>
    <linearGradient
      id="paint1_linear_5350_17596"
      x1="-21.4636"
      y1="-19.7691"
      x2="104.57"
      y2="72.6019"
      gradientUnits="userSpaceOnUse"
    >
      <stop offset="0.225777" stop-color="#EAFDEC" />
      <stop offset="0.479925" stop-color="#8565CC" />
    </linearGradient>
    <clipPath id="clip0_5350_17596">
      <rect width="72" height="67" fill="white" />
    </clipPath>
  </defs>
</svg>
