<svg width="535" height="105" viewBox="0 0 535 105" fill="none" xmlns="http://www.w3.org/2000/svg">
<g clip-path="url(#clip0_5350_17588)">
<path d="M72.7533 12.7C68.5954 5.28091 60.7655 0.629244 52.262 0.485836C43.4947 0.33798 35.3058 5.00168 30.9969 12.6385L27.6077 18.6453C25.4522 22.4655 22.2871 25.6189 18.459 27.7603L12.4158 31.1407C4.94497 35.3196 0.279231 43.1746 0.183547 51.7343L0.174352 52.5569C0.0766082 61.3009 4.76144 69.4003 12.3896 73.6754L18.1743 76.9174C22.0153 79.07 25.1871 82.2418 27.3398 86.0828L30.5817 91.8675C34.8569 99.4957 42.9563 104.181 51.7002 104.083L52.61 104.073C61.123 103.977 68.9428 99.3616 73.1395 91.9544L76.8632 85.3822C79.0258 81.5653 82.197 78.4172 86.0296 76.2827L91.5026 73.2346C99.204 68.9453 103.919 60.765 103.771 51.951C103.627 43.4482 98.9766 35.662 91.5582 31.5045L85.3804 28.0422C81.5394 25.8895 78.3676 22.7177 76.215 18.8767L72.7533 12.7Z" fill="#7556F6"/>
<path d="M72.4338 35.3466C69.3799 34.4573 66.2177 33.1924 63.0109 31.9178C62.826 31.1087 62.1152 30.1006 60.6743 28.8646C58.58 27.0346 54.6464 27.0827 51.2483 27.8918C47.4964 27.0025 43.7891 26.6846 40.2316 27.545C11.1406 35.6195 27.1879 56.1737 16.5059 75.973C31.3276 84.1557 29.6259 92.1508 57.334 92.9276C57.334 92.9276 50.4514 72.5985 68.7456 63.1788C83.5843 55.5409 94.3046 41.3568 72.4306 35.3434L72.4338 35.3466Z" fill="#B7A2FF"/>
<path d="M82.6152 51.8583C76.0262 56.5361 68.5256 60.0837 57.8946 60.0837C52.9186 60.0837 51.9081 54.7574 48.6184 57.3676C46.9194 58.716 40.9329 61.7307 36.18 61.5028C31.3857 61.2716 23.732 58.4656 21.5803 48.2529C21.7017 58.5336 21.3893 67.4377 16.4966 75.9858C22.231 76.7558 29.9243 91.7735 32.959 95.3057C41.5045 105.253 49.178 104.624 57.6454 103.52C55.8826 91.1174 67.5565 67.6734 73.6195 61.4578C75.9146 59.1045 80.3136 55.2615 82.6152 51.8583Z" fill="#B7A2FF"/>
<path d="M50.4663 27.8768C53.0708 28.9178 62.5819 32.0856 66.6969 33.3291C62.4954 26.3576 56.1283 26.7599 50.4663 27.8768Z" fill="#AC94FF"/>
<path d="M53.2632 40.069C53.2632 44.5958 49.6196 48.2622 45.1282 48.2622C40.6367 48.2622 36.9932 44.5958 36.9932 40.069C36.9932 35.5421 40.6367 31.8789 45.1282 31.8789C49.6196 31.8789 53.2632 35.5453 53.2632 40.069Z" fill="white"/>
<path d="M48.5569 46.6936C51.1934 46.6936 53.3306 43.7014 53.3306 40.0103C53.3306 36.3193 51.1934 33.3271 48.5569 33.3271C45.9205 33.3271 43.7832 36.3193 43.7832 40.0103C43.7832 43.7014 45.9205 46.6936 48.5569 46.6936Z" fill="black"/>
<path d="M48.5571 40.0093L42.8286 36.1904V43.8283L48.5571 40.0093Z" fill="white"/>
</g>
<path d="M308.416 68.2643V44.3569H303.234V37.644H308.593V30.1068H315.777V37.644H323.314V44.3569H315.777V61.1981H323.432V68.2643H308.416ZM343.055 68.7943C338.187 68.7943 334.301 67.3025 331.396 64.319C328.53 61.2962 327.097 57.5079 327.097 52.9542C327.097 48.4396 328.569 44.671 331.514 41.6482C334.497 38.6254 338.325 37.1141 342.996 37.1141C347.668 37.1141 351.378 38.6451 354.126 41.7071C356.873 44.7691 358.247 48.42 358.247 52.6597V55.604H334.517C334.988 57.8024 335.969 59.4708 337.461 60.6092C338.992 61.7084 340.857 62.258 343.055 62.258C345.214 62.258 347.02 61.7673 348.473 60.7859C349.964 59.8045 350.946 58.7053 351.417 57.4883L357.011 60.727C356.226 62.6506 354.636 64.476 352.241 66.2033C349.886 67.9306 346.824 68.7943 343.055 68.7943ZM334.693 49.7155H350.592C350.475 48.1845 349.729 46.7712 348.355 45.4757C347.02 44.141 345.214 43.4736 342.937 43.4736C341.014 43.4736 339.286 44.0232 337.755 45.1224C336.264 46.1824 335.243 47.7134 334.693 49.7155ZM364.006 68.2643V37.644H371.426V42.8848L382.32 36.9374V44.7691L371.426 50.3632V68.2643H364.006ZM387.57 68.2643V37.644H394.93V41.4127C395.637 40.1172 396.697 39.0769 398.11 38.2918C399.562 37.5066 401.211 37.1141 403.056 37.1141C407.06 37.1141 410.083 38.5862 412.125 41.5304C414.402 38.5862 417.581 37.1141 421.664 37.1141C425.04 37.1141 427.867 38.1936 430.143 40.3527C432.42 42.5119 433.559 45.1028 433.559 48.1256V68.2643H426.198V50.4221C426.198 48.5378 425.629 47.0264 424.49 45.8879C423.391 44.7102 421.978 44.1214 420.251 44.1214C418.445 44.1214 416.992 44.7102 415.893 45.8879C414.794 47.0656 414.244 48.577 414.244 50.4221V68.2643H406.884V50.4221C406.884 48.5378 406.315 47.0264 405.176 45.8879C404.077 44.7102 402.664 44.1214 400.936 44.1214C399.131 44.1214 397.678 44.7102 396.579 45.8879C395.48 47.0656 394.93 48.577 394.93 50.4221V68.2643H387.57ZM441.202 68.2643V37.644H448.563V68.2643H441.202ZM439.966 28.1635C439.966 26.7503 440.417 25.5922 441.32 24.6893C442.262 23.7864 443.44 23.335 444.853 23.335C446.266 23.335 447.425 23.7864 448.327 24.6893C449.27 25.5922 449.741 26.7503 449.741 28.1635C449.741 29.5375 449.27 30.676 448.327 31.5789C447.385 32.4818 446.227 32.9332 444.853 32.9332C443.44 32.9332 442.262 32.4818 441.32 31.5789C440.417 30.676 439.966 29.5375 439.966 28.1635ZM456.663 68.2643V37.644H464.024V41.4127C464.809 40.1172 465.928 39.0769 467.38 38.2918C468.833 37.5066 470.521 37.1141 472.444 37.1141C475.742 37.1141 478.431 38.1936 480.511 40.3527C482.631 42.4726 483.691 45.0635 483.691 48.1256V68.2643H476.331V50.481C476.331 48.5574 475.742 47.0264 474.564 45.8879C473.426 44.7102 471.973 44.1214 470.207 44.1214C468.361 44.1214 466.87 44.7102 465.731 45.8879C464.593 47.0656 464.024 48.5967 464.024 50.481V68.2643H456.663ZM499.977 68.8531C496.954 68.8531 494.441 67.9699 492.439 66.2033C490.437 64.4368 489.436 62.1402 489.436 59.3138C489.436 56.4873 490.378 54.2104 492.263 52.4831C494.147 50.7558 496.797 49.794 500.212 49.5977L508.633 49.0677V48.7733C508.633 47.5564 508.024 46.4179 506.807 45.358C505.63 44.2588 504.059 43.7092 502.096 43.7092C500.134 43.7092 498.603 44.1803 497.503 45.1224C496.404 46.0646 495.639 47.1442 495.207 48.3611L489.318 45.358C490.339 42.9633 491.929 41.0005 494.088 39.4695C496.247 37.8992 498.976 37.1141 502.273 37.1141C506.591 37.1141 509.948 38.3703 512.343 40.8827C514.776 43.3951 515.993 46.2413 515.993 49.421V68.2643H508.633V65.0256C506.984 67.5773 504.099 68.8531 499.977 68.8531ZM497.916 56.605C497.248 57.1939 496.915 57.9986 496.915 59.0193C496.915 60.04 497.288 60.8644 498.033 61.4925C498.819 62.0814 499.82 62.3758 501.037 62.3758C503.078 62.3758 504.864 61.7869 506.395 60.6092C507.965 59.3923 508.751 57.8613 508.751 56.0162V55.074L500.683 55.604C499.545 55.6825 498.622 56.0162 497.916 56.605ZM523.212 68.2643V24.6893H530.573V68.2643H523.212Z" fill="#8163FF"/>
<path d="M281.873 36.9717C286.732 36.9717 290.65 38.4601 293.627 41.4369C296.648 44.37 298.158 48.1785 298.158 52.8626C298.158 57.5467 296.648 61.3772 293.627 64.354C290.65 67.287 286.732 68.7535 281.873 68.7535C276.97 68.7535 273.009 67.287 269.988 64.354C267.011 61.3772 265.523 57.5467 265.523 52.8626C265.523 48.1785 267.011 44.37 269.988 41.4369C273.009 38.4601 276.97 36.9717 281.873 36.9717ZM276.62 59.0351C277.933 60.6111 279.684 61.3991 281.873 61.3991C284.062 61.3991 285.791 60.6111 287.061 59.0351C288.374 57.4592 289.031 55.4017 289.031 52.8626C289.031 50.3236 288.374 48.2661 287.061 46.6901C285.791 45.1142 284.062 44.3262 281.873 44.3262C279.684 44.3262 277.933 45.1142 276.62 46.6901C275.307 48.2661 274.65 50.3236 274.65 52.8626C274.65 55.4017 275.307 57.4592 276.62 59.0351Z" fill="black"/>
<path d="M249.036 58.581L248.427 56.0144H240.635V68.3594H231.639V22H240.635V48.9883H244.443C246.895 48.9883 248.821 48.2441 250.222 46.7556C251.623 45.2672 252.323 43.1441 252.323 40.3862C252.323 39.6857 252.236 38.6789 252.061 37.3656H260.663C260.881 38.3724 260.991 39.445 260.991 40.5831C260.991 47.1059 257.876 52.6287 253.629 55.0802L256.148 58.9789L249.036 58.581Z" fill="black"/>
<path d="M212.611 36.9717C216.595 36.9717 219.746 38.0224 222.067 40.1236C224.431 42.1811 225.613 44.7639 225.613 47.8721L225.416 50.1704L217.47 50.63C217.558 50.4549 217.601 49.9953 217.601 49.251C217.601 47.8502 217.142 46.6901 216.222 45.7708C215.347 44.8077 214.099 44.3262 212.48 44.3262C210.422 44.3262 208.759 45.0923 207.489 46.6245C206.263 48.1566 205.65 50.1704 205.65 52.6656C205.65 55.3798 206.329 57.5248 207.686 59.1008C209.087 60.633 211.079 61.3991 213.662 61.3991C217.339 61.3991 220.162 60.1952 222.132 57.7875L226.532 63.4347C225.394 64.8793 223.664 66.1269 221.344 67.1776C219.024 68.2282 216.266 68.7535 213.071 68.7535C207.949 68.7535 203.899 67.3089 200.923 64.4196C197.99 61.4866 196.523 57.678 196.523 52.9939C196.523 48.2223 198.011 44.37 200.988 41.4369C203.965 38.4601 207.839 36.9717 212.611 36.9717Z" fill="black"/>
<path d="M179.883 61.9244C183.079 61.9244 185.749 60.7424 187.894 58.3785L192.162 63.3033C190.98 64.8355 189.229 66.1269 186.909 67.1776C184.633 68.2282 181.94 68.7535 178.832 68.7535C173.71 68.7535 169.639 67.287 166.619 64.354C163.642 61.4209 162.153 57.5905 162.153 52.8626C162.153 48.1785 163.598 44.37 166.487 41.4369C169.377 38.4601 173.207 36.9717 177.979 36.9717C182.4 36.9717 185.88 38.3288 188.419 41.0429C190.958 43.7571 192.228 47.2811 192.228 51.615L191.965 54.8982H171.084C171.478 57.0433 172.419 58.7506 173.907 60.0201C175.396 61.2896 177.388 61.9244 179.883 61.9244ZM177.979 43.8009C176.184 43.8009 174.652 44.37 173.382 45.5082C172.156 46.6026 171.39 48.1785 171.084 50.236H184.02C183.976 48.3536 183.407 46.8214 182.313 45.6395C181.262 44.4137 179.817 43.8009 177.979 43.8009Z" fill="black"/>
<path d="M149.281 37.3657H156.373V67.1776C156.373 71.7303 154.797 75.3857 151.645 78.1436C148.493 80.9015 144.269 82.2805 138.972 82.2805C133.324 82.2805 128.684 81.0548 125.051 78.6033L125.949 72.4025C128.795 74.5476 134.878 75.0574 138.775 75.0574C141.401 75.0574 143.481 74.4007 145.013 73.0874C146.589 71.8179 147.377 69.9355 147.377 67.4402V63.6317C145.363 66.5647 142.255 68.0312 138.052 68.0312C133.937 68.0312 130.566 66.6741 127.94 63.96C125.313 61.2021 124 57.3716 124 52.4686C124 47.7845 125.248 44.0416 127.743 41.2399C130.238 38.3945 133.609 36.9717 137.855 36.9717C142.802 36.9717 146.195 39.0511 148.033 43.2099H148.23C148.187 42.7283 148.274 41.8528 148.493 40.5833C148.712 39.3138 148.975 38.2412 149.281 37.3657ZM140.285 60.4798C142.43 60.4798 144.137 59.7355 145.407 58.2471C146.72 56.715 147.377 55.0296 147.377 53.1909V51.812C147.377 49.842 146.72 48.1347 145.407 46.6901C144.093 45.2455 142.321 44.5232 140.088 44.5232C137.987 44.5232 136.301 45.2455 135.032 46.6901C133.762 48.1347 133.127 50.0609 133.127 52.4686C133.127 54.9201 133.762 56.8682 135.032 58.3128C136.345 59.7574 138.096 60.4798 140.285 60.4798Z" fill="black"/>
<path d="M260.515 69.8455C252.169 66.3924 246.436 59.4023 242.871 53.4981L252.8 51.5107C256.035 57.876 259.195 61.7944 262.688 66.9742C263.803 68.6271 262.358 70.6077 260.515 69.8455Z" fill="black"/>
<defs>
<clipPath id="clip0_5350_17588">
<rect width="104" height="105" fill="white"/>
</clipPath>
</defs>
</svg>
