<svg width="104" height="105" viewBox="0 0 104 105" fill="none" xmlns="http://www.w3.org/2000/svg">
<g clip-path="url(#clip0_5350_17574)">
<path d="M72.7533 12.7C68.5954 5.28091 60.7655 0.629244 52.262 0.485836C43.4947 0.33798 35.3058 5.00168 30.9969 12.6385L27.6077 18.6453C25.4522 22.4655 22.2871 25.6189 18.459 27.7603L12.4158 31.1407C4.94497 35.3196 0.279231 43.1746 0.183547 51.7343L0.174352 52.5569C0.0766082 61.3009 4.76144 69.4003 12.3896 73.6754L18.1743 76.9174C22.0153 79.07 25.1871 82.2418 27.3398 86.0828L30.5817 91.8675C34.8569 99.4957 42.9563 104.181 51.7002 104.083L52.61 104.073C61.123 103.977 68.9428 99.3616 73.1395 91.9544L76.8632 85.3822C79.0258 81.5653 82.197 78.4172 86.0296 76.2827L91.5026 73.2346C99.204 68.9453 103.919 60.765 103.771 51.951C103.627 43.4482 98.9766 35.662 91.5582 31.5045L85.3804 28.0422C81.5394 25.8895 78.3676 22.7177 76.215 18.8767L72.7533 12.7Z" fill="#7556F6"/>
<path d="M72.4338 35.3466C69.3799 34.4573 66.2177 33.1924 63.0109 31.9178C62.826 31.1087 62.1152 30.1006 60.6743 28.8646C58.58 27.0346 54.6464 27.0827 51.2483 27.8918C47.4964 27.0025 43.7891 26.6846 40.2316 27.545C11.1406 35.6195 27.1879 56.1737 16.5059 75.973C31.3276 84.1557 29.6259 92.1508 57.334 92.9276C57.334 92.9276 50.4514 72.5985 68.7456 63.1788C83.5843 55.5409 94.3046 41.3568 72.4306 35.3434L72.4338 35.3466Z" fill="#B7A2FF"/>
<path d="M82.6152 51.8583C76.0262 56.5361 68.5256 60.0837 57.8946 60.0837C52.9186 60.0837 51.9081 54.7574 48.6184 57.3676C46.9194 58.716 40.9329 61.7307 36.18 61.5028C31.3857 61.2716 23.732 58.4656 21.5803 48.2529C21.7017 58.5336 21.3893 67.4377 16.4966 75.9858C22.231 76.7558 29.9243 91.7735 32.959 95.3057C41.5045 105.253 49.178 104.624 57.6454 103.52C55.8826 91.1174 67.5565 67.6734 73.6195 61.4578C75.9146 59.1045 80.3136 55.2615 82.6152 51.8583Z" fill="#B7A2FF"/>
<path d="M50.4663 27.8768C53.0708 28.9178 62.5819 32.0856 66.6969 33.3291C62.4954 26.3576 56.1283 26.7599 50.4663 27.8768Z" fill="#AC94FF"/>
<path d="M53.2632 40.069C53.2632 44.5958 49.6196 48.2622 45.1282 48.2622C40.6367 48.2622 36.9932 44.5958 36.9932 40.069C36.9932 35.5421 40.6367 31.8789 45.1282 31.8789C49.6196 31.8789 53.2632 35.5453 53.2632 40.069Z" fill="white"/>
<path d="M48.5569 46.6936C51.1934 46.6936 53.3306 43.7014 53.3306 40.0103C53.3306 36.3193 51.1934 33.3271 48.5569 33.3271C45.9205 33.3271 43.7832 36.3193 43.7832 40.0103C43.7832 43.7014 45.9205 46.6936 48.5569 46.6936Z" fill="black"/>
<path d="M48.5571 40.0093L42.8286 36.1904V43.8283L48.5571 40.0093Z" fill="white"/>
</g>
<defs>
<clipPath id="clip0_5350_17574">
<rect width="104" height="105" fill="white"/>
</clipPath>
</defs>
</svg>
