<svg width="723" height="160" viewBox="0 0 723 160" fill="none" xmlns="http://www.w3.org/2000/svg">
<g clip-path="url(#clip0_5350_17600)">
<path d="M662.1 120.3L636 60.3998H653.5L671.3 103.3L691.9 60.3998H709.1L668.5 142.9H651.1L662.1 120.3ZM598.7 107.9C600.2 107.5 601.7 107 603.1 106.2C604.4 105.5 605.7 104.6 606.8 103.6C607.9 102.6 608.9 101.4 609.7 100.1C610.5 98.6998 611.2 97.1998 611.6 95.6998C612.1 93.9998 612.3 92.2998 612.3 90.4998C612.3 88.6998 612.1 86.9998 611.6 85.2998C611.2 83.7998 610.5 82.2998 609.7 80.8998C608.9 79.5998 607.9 78.3998 606.8 77.3998C605.7 76.3998 604.4 75.4998 603.1 74.7998C601.7 74.0998 600.2 73.5998 598.7 73.1998C597.1 72.7998 595.4 72.5998 593.8 72.6998C592.2 72.6998 590.5 72.8998 588.9 73.1998C587.4 73.4998 585.9 74.0998 584.5 74.7998C583.1 75.4998 581.9 76.3998 580.8 77.3998C579.7 78.3998 578.7 79.5998 577.9 80.8998C577.1 82.2998 576.4 83.7998 576 85.2998C575.5 86.9998 575.3 88.7998 575.3 90.4998C575.3 92.1998 575.5 93.9998 576 95.6998C576.4 97.1998 577.1 98.6998 577.9 100.1C578.7 101.4 579.7 102.6 580.8 103.6C581.9 104.6 583.2 105.5 584.5 106.2C585.9 106.9 587.3 107.5 588.9 107.9C590.5 108.3 592.1 108.5 593.8 108.4C595.4 108.5 597 108.3 598.7 107.9ZM581 121.3C578.3 120.6 575.7 119.6 573.3 118.2C568.6 115.6 564.7 111.7 562.1 107C560.7 104.6 559.7 102 559 99.2998C557.6 93.4998 557.6 87.4998 559 81.6998C559.7 78.9998 560.7 76.3998 562.1 73.9998C564.7 69.2998 568.6 65.4998 573.3 62.7998C575.7 61.4998 578.3 60.3998 581 59.6998C583.9 58.9998 586.8 58.5998 589.8 58.5998C591.4 58.5998 593 58.6998 594.6 58.8998C596.1 59.0998 597.5 59.3998 598.9 59.7998C600.2 60.1998 601.5 60.5998 602.7 61.1998C603.9 61.6998 605 62.2998 606.1 62.9998C607.1 63.5998 608.1 64.3998 608.9 65.1998C609.7 65.9998 610.5 66.7998 611.1 67.6998V60.4998H627.7V120.7H611.1V113.5C608.9 116.3 606 118.5 602.7 120C600.8 120.9 598.8 121.5 596.7 121.8C594.4 122.2 592 122.5 589.7 122.4C586.8 122.4 583.9 122.1 581 121.3ZM520.8 75.6998C523.2 75.6998 525.6 75.4998 527.9 74.8998C529.7 74.3998 531.4 73.5998 532.8 72.3998C534.1 71.2998 535.1 69.8998 535.7 68.2998C536.3 66.4998 536.7 64.5998 536.6 62.6998C536.6 60.7998 536.3 58.8998 535.7 57.0998C535.1 55.4998 534.1 54.1998 532.8 53.0998C531.4 51.9998 529.7 51.0998 527.9 50.6998C525.6 50.0998 523.2 49.7998 520.8 49.8998H504.5V75.6998H520.8ZM487.3 35.6998H522.5C527.4 35.5998 532.2 36.2998 536.8 37.6998C540.5 38.7998 543.9 40.7998 546.8 43.2998C549.4 45.6998 551.4 48.5998 552.7 51.8998C554 55.3998 554.7 59.0998 554.6 62.7998C554.6 66.4998 554 70.1998 552.7 73.5998C551.4 76.8998 549.4 79.7998 546.8 82.1998C543.9 84.7998 540.5 86.6998 536.8 87.7998C532.2 89.1998 527.3 89.8998 522.5 89.7998H504.6V120.7H487.4L487.3 35.6998ZM413.6 60.3998H430.1V67.5998C431.1 66.1998 432.3 64.8998 433.7 63.8998C435.1 62.7998 436.7 61.7998 438.4 61.0998C440.2 60.2998 442.2 59.6998 444.2 59.2998C446.4 58.8998 448.6 58.6998 450.9 58.6998C454.4 58.5998 457.9 59.1998 461.1 60.3998C464 61.4998 466.7 63.1998 468.9 65.3998C471.1 67.6998 472.7 70.4998 473.7 73.4998C474.9 76.9998 475.4 80.5998 475.4 84.2998V120.7H458.9V88.5998C458.9 86.2998 458.6 83.8998 457.9 81.6998C457.3 79.8998 456.4 78.1998 455.1 76.6998C453.9 75.3998 452.3 74.2998 450.6 73.6998C446.7 72.3998 442.4 72.3998 438.4 73.6998C436.7 74.2998 435.1 75.3998 433.9 76.6998C432.6 78.1998 431.7 79.8998 431.1 81.6998C430.4 83.8998 430.1 86.2998 430.1 88.5998V120.7H413.7L413.6 60.3998ZM373 107.7C374.6 107.3 376.1 106.8 377.5 106C378.9 105.3 380.1 104.4 381.2 103.3C382.3 102.2 383.2 101 384 99.6998C384.8 98.2998 385.4 96.8998 385.7 95.3998C386.5 92.0998 386.5 88.6998 385.7 85.3998C385 82.3998 383.4 79.5998 381.2 77.4998C380.1 76.3998 378.8 75.4998 377.5 74.7998C376.1 73.9998 374.5 73.4998 373 73.0998C371.3 72.6998 369.5 72.4998 367.8 72.4998C366.1 72.4998 364.3 72.6998 362.6 73.0998C361 73.4998 359.5 73.9998 358.1 74.7998C356.7 75.4998 355.5 76.3998 354.4 77.4998C353.3 78.5998 352.4 79.7998 351.6 81.0998C349.2 85.4998 348.6 90.5998 349.9 95.4998C350.3 96.9998 350.9 98.4998 351.6 99.7998C352.3 101.1 353.3 102.3 354.4 103.4C355.5 104.5 356.7 105.4 358.1 106.1C359.5 106.8 361 107.4 362.6 107.8C364.3 108.2 366 108.4 367.8 108.4C369.6 108.4 371.3 108.2 373 107.7ZM358.1 121.3C355.1 120.6 352.2 119.6 349.5 118.2C346.9 116.9 344.6 115.3 342.4 113.4C340.3 111.5 338.5 109.4 337.1 107C335.6 104.6 334.5 102 333.7 99.2998C332.1 93.4998 332.1 87.3998 333.7 81.6998C334.5 78.9998 335.6 76.3998 337.1 73.9998C340.1 69.1998 344.4 65.2998 349.5 62.7998C352.2 61.3998 355.1 60.3998 358.1 59.6998C364.5 58.1998 371.2 58.1998 377.6 59.6998C380.6 60.3998 383.4 61.3998 386.1 62.7998C388.7 64.0998 391 65.6998 393.2 67.6998C395.3 69.5998 397.1 71.6998 398.6 74.0998C400.1 76.4998 401.3 79.0998 402 81.7998C403.6 87.5998 403.6 93.6998 402 99.3998C400.5 104.9 397.4 109.8 393.2 113.5C391.1 115.4 388.7 117 386.1 118.3C383.4 119.7 380.5 120.7 377.6 121.4C371.2 122.8 364.5 122.8 358.1 121.3ZM293.9 107.7C295.5 107.3 297 106.8 298.4 106C299.8 105.3 301 104.4 302.1 103.3C303.2 102.2 304.1 101 304.9 99.6998C305.7 98.2998 306.3 96.8998 306.6 95.3998C307.4 92.0998 307.4 88.6998 306.6 85.3998C305.9 82.3998 304.3 79.5998 302.1 77.4998C301 76.3998 299.7 75.4998 298.4 74.7998C297 73.9998 295.4 73.4998 293.9 73.0998C292.2 72.6998 290.4 72.4998 288.7 72.4998C287 72.4998 285.2 72.6998 283.5 73.0998C281.9 73.4998 280.4 73.9998 279 74.7998C277.7 75.4998 276.4 76.3998 275.3 77.4998C274.2 78.4998 273.3 79.7998 272.5 81.0998C271.8 82.4998 271.2 83.8998 270.8 85.3998C270.4 86.9998 270.1 88.6998 270.2 90.3998C270.2 92.0998 270.4 93.7998 270.8 95.3998C271.2 96.8998 271.8 98.3998 272.5 99.6998C273.2 101 274.2 102.2 275.3 103.3C276.4 104.4 277.6 105.3 279 106C280.4 106.7 281.9 107.3 283.5 107.7C285.2 108.1 286.9 108.3 288.7 108.3C290.4 108.3 292.2 108.1 293.9 107.7ZM278.9 121.3C275.9 120.6 273 119.6 270.3 118.2C267.7 116.9 265.4 115.3 263.2 113.4C261.1 111.5 259.3 109.4 257.9 107C256.4 104.6 255.3 102 254.5 99.2998C252.9 93.4998 252.9 87.3998 254.5 81.6998C255.3 78.9998 256.4 76.3998 257.9 73.9998C259.4 71.5998 261.2 69.4998 263.2 67.5998C265.3 65.6998 267.7 63.9998 270.3 62.6998C273 61.2998 275.9 60.2998 278.9 59.5998C285.3 58.1998 292 58.1998 298.4 59.5998C301.4 60.2998 304.2 61.2998 306.9 62.6998C309.5 63.9998 311.8 65.5998 314 67.5998C316.1 69.4998 317.9 71.5998 319.4 73.9998C320.9 76.3998 322.1 78.9998 322.8 81.6998C324.4 87.4998 324.4 93.5998 322.8 99.2998C321.3 104.8 318.2 109.7 314 113.4C311.9 115.3 309.5 116.9 306.9 118.2C304.2 119.6 301.3 120.6 298.4 121.3C292.1 122.8 285.4 122.8 278.9 121.3ZM148.9 35.6998H166.3L195.9 80.9998L225.7 35.6998H243V120.7H225.8V62.3998L201.2 99.9998H190.7L166.1 62.3998V120.7H148.9V35.6998Z" fill="black"/>
<path d="M109.3 50.8998C118.9 50.8998 126.6 43.0998 126.6 33.5998C126.6 23.9998 118.8 16.2998 109.3 16.2998C99.6998 16.2998 91.9998 24.0998 91.9998 33.5998C91.9998 43.0998 99.6998 50.8998 109.3 50.8998ZM56.0998 129C32.6998 129 13.7998 110.1 13.7998 86.6998C13.7998 63.2998 32.6998 44.3998 56.0998 44.3998C79.4998 44.3998 98.3998 63.2998 98.3998 86.6998C98.3998 110.1 79.4998 129 56.0998 129Z" fill="#7D00FF"/>
</g>
<defs>
<clipPath id="clip0_5350_17600">
<rect width="722.9" height="159.1" fill="white"/>
</clipPath>
</defs>
</svg>
