<svg width="1697" height="1349" viewBox="0 0 1697 1349" fill="none" xmlns="http://www.w3.org/2000/svg">
<path d="M0 221.551C0 117.111 0 64.8908 32.4156 32.4454C64.8313 0 117.003 0 221.348 0H1475.65C1580 0 1632.17 0 1664.58 32.4454C1697 64.8908 1697 117.111 1697 221.551V1127.45C1697 1231.89 1697 1284.11 1664.58 1316.55C1632.17 1349 1580 1349 1475.65 1349H221.348C117.003 1349 64.8313 1349 32.4156 1316.55C0 1284.11 0 1231.89 0 1127.45V221.551Z" fill="#B5E938"/>
<path fill-rule="evenodd" clip-rule="evenodd" d="M36.8913 209.243C36.8913 128.011 36.8913 87.3958 62.1035 62.1605C87.3156 36.9252 127.894 36.9252 209.051 36.9252H1487.95C1569.11 36.9252 1609.68 36.9252 1634.9 62.1605C1660.11 87.3958 1660.11 128.011 1660.11 209.243V1053.6C1660.11 1134.83 1660.11 1175.45 1634.9 1200.68C1609.68 1225.92 1569.11 1225.92 1487.95 1225.92H209.051C127.894 1225.92 87.3156 1225.92 62.1035 1200.68C36.8913 1175.45 36.8913 1134.83 36.8913 1053.6V209.243ZM1537.01 633.753V155.086H1412.84V473.259L1105.24 155.086H995.182V476.075L687.581 157.901H577.522V476.075L269.921 157.901H159.862V633.753H284.031V326.843L577.522 633.753H701.691V326.843L995.182 633.753H1119.35L1119.35 324.027L1412.84 633.753H1537.01ZM1049.02 1102.83C1038.35 1102.83 1029.05 1100.44 1021.12 1095.66C1013.36 1090.73 1007.3 1083.8 1002.93 1074.88C998.565 1065.96 996.382 1055.45 996.382 1043.34V886.614C996.382 874.668 998.565 864.236 1002.93 855.316C1007.3 846.397 1013.44 839.468 1021.37 834.531C1029.29 829.593 1038.51 827.124 1049.02 827.124C1059.04 827.124 1067.86 829.434 1075.46 834.053C1083.22 838.672 1089.28 845.282 1093.65 853.883C1098.18 862.484 1100.52 872.677 1100.69 884.464V921.734H1087.1L1086.86 883.747C1086.86 874.987 1085.32 867.341 1082.25 860.811C1079.18 854.122 1074.81 849.025 1069.15 845.521C1063.49 841.857 1056.78 840.026 1049.02 840.026C1040.93 840.026 1033.98 842.016 1028.16 845.998C1022.34 849.821 1017.89 855.236 1014.82 862.245C1011.74 869.094 1010.21 876.978 1010.21 885.897V1044.06C1010.21 1053.3 1011.74 1061.42 1014.82 1068.43C1017.89 1075.28 1022.34 1080.61 1028.16 1084.44C1033.98 1088.1 1041.01 1089.93 1049.26 1089.93C1056.86 1089.93 1063.41 1088.26 1068.91 1084.91C1074.57 1081.41 1078.94 1076.39 1082.01 1069.86C1085.08 1063.33 1086.7 1055.45 1086.86 1046.21L1087.1 1008.22H1100.69V1045.49C1100.52 1057.44 1098.26 1067.71 1093.89 1076.31C1089.53 1084.75 1083.46 1091.28 1075.7 1095.9C1067.94 1100.52 1059.04 1102.83 1049.02 1102.83ZM205.95 842.654V1100.2H220.018V842.654H265.863V829.752H159.862V842.654H205.95ZM583.701 829.752V1100.2H670.782V1087.54H597.285V967.845H666.901V955.422H597.285V842.654H670.782V829.752H583.701ZM1426.53 829.752V1100.2H1440.11V967.845H1523.31V1100.2H1537.14V829.752H1523.31V955.183H1440.11V829.752H1426.53Z" fill="#1E1E1E"/>
</svg>
